<svg xmlns="http://www.w3.org/2000/svg" width="185pt" height="161pt" viewBox="0 0 185 161"><path fill="#231f20" d="M90.781 1.102C93.25 0 94.25.875 94.895 1.59c.535.465 1.261 1.648 1.386 2.437.516.207 1.176.243 1.344.852.242 1.031-.125 2.34-1.008 2.969-.379.21-.305.82-.797.465-.734 1.332-1.46 2.57-2.394 3.863-.293.597-1.176 1.445-.965 2.097.367-.02.746-.28 1.09-.125.242 1.29 1.656 1.668 2.254 2.813 3.496 5.672-1.368 12.055-.012 18.144.262 1.016.039 2.004.613 2.899.61-.516 1.375.094 2.145-.043 1.648-.168 2.906-.883 4.41-1.387.219-.05.473.063.46.293-.222.485-.167.969-.292 1.43.45.293.797-.156 1.176-.293 1.742-.484 3.597-.934 5.418-1.008l2.558.672a99 99 0 0 0 6.215 3.82c1.324.43 3.121.852 4.371-.043.63.067.89-.511 1.426-.672 1.219-.703 2.805-.535 4.2-.796 1.144.242 2.144.84 3.152 1.386.964.922 2.128 1.91 2.394 3.192.672 1.898 1.215 3.843 2.059 5.672-.012.27.05.574-.211.753-.727.094-1.461-.304-2.184-.46-.348-.2-.633-.665-1.008-.422.922 2.207 1.207 4.465.965 6.886-.094.286-.379.266-.629.254-.496-.125-.734-.62-1.261-.672.304 2.047.535 4.22-.043 6.215-.598 1.461-1.48 2.95-2.813 4.074-1.176 1.48-1.605 3.95-.672 5.63.094.312-.113.578-.422.546-.48.008-.367-.652-.879-.59-.546-.492-1.343-.554-1.976-.921-2.16-1.305-2.762-3.993-2.309-6.426.715-5.914 4.453-11.68 2.438-17.934-.664-1.113-1.746-2.426-3.196-2.394l-.125.168c.055 1.636.747 3.171.63 4.87.117 1.387-.157 2.993-.419 4.325-.504 2.25-1.89 4.328-3.82 5.715-2.059 2.11-3.203 5.27-1.977 8.23.833 2.676 3.086 3.746 5 5.5.25.031.356.23.376.465-.083.586-.04 1.395.128 1.93-.043.222-.043.547-.336.59-2.28.543-3.816 2.597-5.851 3.625-2.195 1.691-4.586 3.597-4.86 6.453-.117.558-.546.808-.964 1.093-.864-.41-2.008-.37-2.73.293-.212.493-.59.766-1.009 1.09-1.406-.23-2.675-.816-3.949-1.383-.25-.304-.703-.39-.797-.8l.168-.672c2.352-1.606 4.66-3.684 6.805-5.711 1.227-1.176 2.707-2.11 3.82-3.484a4.5 4.5 0 0 0 .63-1.81c-.723-1.425-2.403-1.784-3.735-2.35.101.663 1.07 1.242.754 2.058-1.282.852-2.633 1.71-4.117 2.184-.704.988-1.993.66-2.645 1.68-.871.198-1.598.913-2.477 1.175a6.11 6.11 0 0 0-2.48 4.746c-.797 1-2.563-.137-3.066 1.3a.9.9 0 0 1-.293.423c-.946-.25-1.899-.473-2.73-1.008-.25-.82-1.688-1.05-1.302-1.973 1.493-2.175 4.125-2.68 5.965-4.285 2.016-1.176 3-3.066 3.051-5.418.348-3.937-2.988-6.508-5.867-8.691-1.774-1.348-3.41-3.11-5.29-4.371-.093-.461-.59-.555-.968-.375-.984.773-2.453.398-3.398 1.257-1.114.528-2.5.399-3.696.715-.285-.136-.683-.086-.844-.422a1.5 1.5 0 0 1 .168-.84c-.375-.113-.367.403-.585.59-1.325 2.5-2.5 4.954-2.63 7.895-.472.64-1.663.566-2.367.816-.59-.105-1.336-.394-1.64-.984-.953 1.219-2.5.879-3.864 1.027-1.093-.093-2.257-.386-3.277.082-.45.043-.941-.437-1.344-.648-.492-.61.032-1.313.043-1.973.547-.41 1.114-.785 1.805-.84 1.25-.449 2.5-1.007 3.95-.84.734.032 1.261-.472 1.679-.964.39-.758.598-1.598.797-2.438l-.082-.168c-.399.242-.82.055-1.262.168-.86.23-1.656.598-2.601.63-2.079-.2-4.297-.337-5.63-2.056-.093-.328-.722-.558-.503-1.007.62-.77 1.574-1.325 2.562-1.137.809.621 1.332 1.27 2.309 1.555 1.137.02 2.144.87 3.277.379.778.167 1.426-.485 2.184-.254.105-1.102.504-2.235.293-3.317-.746-.304-2.352.012-2.645-.926.168-3.261 1.09-6.59 2.309-9.53 1.008-2.048 2.351-4.032 3.234-6.177.442-1.562 1.195-3.671 0-5.082-.367-.132-.441-.605-.336-.964l.168-.168c.715.105 1.922-.485 2.227.503.976 3.477-1.649 6.083-2.813 8.989-1.703 2.91-3.027 6.14-3.402 9.535-.305.766-.297 1.773-.211 2.601.441.368.953.192 1.512.293.652-.492.418-1.617 1.007-2.097.188-.012.348.074.547.043.45-.977.176-2.239.25-3.278-.386-4.125 2.575-7.054 5.082-9.828 1.618-1.828 3.286-3.59 5.082-5.164.286-.023.61-.023.59.336-.093 1.29-.39 2.93.082 4.2q.345 1.381.883 2.687c1.164 1.113 1.617 3.508 3.57 3.316.915-.441 1.332-1.383 2.184-1.886 1.09-1.555 2.602-2.786 3.316-4.54.118-.074.168-.273.336-.207.243-.316.36-.683.465-1.05-1.652-2.47-2.113-5.692-1.554-8.653.199-1.324.406-2.742.796-4.03.442-2.645 1.45-6.102-.379-8.485-.628-.989-1.425-1.61-2.015-2.617-1.625.578-2.938.89-4.621 1.343-.27 3.055-2.055 5.59-2.434 8.707.168.274-.156.621.125.84l.211-.21c1.008-2.141 1.879-4.345 3.149-6.384.148.024.23-.23.378-.082.223.207.649.418.618.63-1.543 2.948-3.559 5.984-4.649 9.113.031.347-.355.914.082 1.05.442.274 1.031.45 1.262.965-.082.188-.125.461-.379.504-.504-.187-.883-.652-1.387-.84-.84-.293-1.605-.777-2.52-.883-1.28 2.07-1.866 4.633-1.76 7.055.472.149.882-.344 1.3-.586a8.4 8.4 0 0 1 4.832-2.351c.43-.528 1.27-.293 1.512-1.008 1.468-3.34 3.515-6.438 4.535-9.953.125-.653.238-1.418.418-2.102l.043-1.723c.187-.242.535-.242.797-.168.41.56.117 1.344.086 1.977-.872 3.695-2.825 6.938-4.329 10.371-.691.938-.933 2.133-1.761 2.942-.535-.157-.871.43-1.387.46-2.363.118-4 1.88-5.797 3.192-.379-.219-.86.305-.965-.293-.242-.809-.062-1.73 0-2.563-.523-.43-1.195.137-1.722-.168-.45-.484-1.164-1.007-.883-1.804-.27-.125-.617.062-.965 0-2.645-.117-5.637.12-8.106-.813-3.812-.902-7.34-2.422-10.543-4.691-1.542-1.258-2.761-3.117-3.863-4.742-.672-.043-1.406-.168-1.722-.801-.125-.766.105-1.93.8-2.371.547-.2 1.563-.25 2.118-.04.367.376.308 1.173.316 1.696 0 .559-.25.938-.715 1.262.434.828 1.18 1.594 1.766 2.394 1.828 2.11 4.316 3.16 6.593 4.45.977.558 2.227.41 3.153 1.093 2.172.082 3.902 1.344 6.129 1.176 1.449-.05 3.297.094 4.746.043.273.012.46.324.758.168.734-.996 1.046-2.984 2.687-2.687.504.042.492 1.101 1.008.671.207-.261.23-.726.629-.797.82-.171 1.406.461 2.226.418.38-.492.368-1.082.586-1.68-.71-4.335 1.66-7.76 2.016-11.76 0-.208-.05-.63.297-.673.176-.062.387-.039.547-.168-.117-.363-.075-.797-.38-1.09-.831 0-1.984.871-2.48-.293-.187-1.207.2-2.543-1.175-3.109-.188-.21 0-.473 0-.715.925-1.594 2.609-2.793 1.988-4.87-.137-1.02-.043-2.364.45-3.274.733-.672 1.91-.528 2.687-.13.554.223.988-.898 1.43-.991"/><path fill="none" stroke="#231f20" stroke-miterlimit="3.864" stroke-width=".7000000000000001" d="M90.781 1.102C93.25 0 94.25.875 94.895 1.59c.535.465 1.261 1.648 1.386 2.437.516.207 1.176.243 1.344.852.242 1.031-.125 2.34-1.008 2.969-.379.21-.305.82-.797.465-.734 1.332-1.46 2.57-2.394 3.863-.293.597-1.176 1.445-.965 2.097.367-.02.746-.28 1.09-.125.242 1.29 1.656 1.668 2.254 2.813 3.496 5.672-1.368 12.055-.012 18.144.262 1.016.039 2.004.613 2.899.61-.516 1.375.094 2.145-.043 1.648-.168 2.906-.883 4.41-1.387.219-.05.473.063.46.293-.222.485-.167.969-.292 1.43.45.293.797-.156 1.176-.293 1.742-.484 3.597-.934 5.418-1.008l2.558.672a99 99 0 0 0 6.215 3.82c1.324.43 3.121.852 4.371-.043.63.067.89-.511 1.426-.672 1.219-.703 2.805-.535 4.2-.796 1.144.242 2.144.84 3.152 1.386.964.922 2.128 1.91 2.394 3.192.672 1.898 1.215 3.843 2.059 5.672-.012.27.05.574-.211.753-.727.094-1.461-.304-2.184-.46-.348-.2-.633-.665-1.008-.422.922 2.207 1.207 4.465.965 6.886-.094.286-.379.266-.629.254-.496-.125-.734-.62-1.261-.672.304 2.047.535 4.22-.043 6.215-.598 1.461-1.48 2.95-2.813 4.074-1.176 1.48-1.605 3.95-.672 5.63.094.312-.113.578-.422.546-.48.008-.367-.652-.879-.59-.546-.492-1.343-.554-1.976-.921-2.16-1.305-2.762-3.993-2.309-6.426.715-5.914 4.453-11.68 2.438-17.934-.664-1.113-1.746-2.426-3.196-2.394l-.125.168c.055 1.636.747 3.171.63 4.87.117 1.387-.157 2.993-.419 4.325-.504 2.25-1.89 4.328-3.82 5.715-2.059 2.11-3.203 5.27-1.977 8.23.833 2.676 3.086 3.746 5 5.5.25.031.356.23.376.465-.083.586-.04 1.395.128 1.93-.043.222-.043.547-.336.59-2.28.543-3.816 2.597-5.851 3.625-2.195 1.691-4.586 3.597-4.86 6.453-.117.558-.546.808-.964 1.093-.864-.41-2.008-.37-2.73.293-.212.493-.59.766-1.009 1.09-1.406-.23-2.675-.816-3.949-1.383-.25-.304-.703-.39-.797-.8l.168-.672c2.352-1.606 4.66-3.684 6.805-5.711 1.227-1.176 2.707-2.11 3.82-3.484a4.5 4.5 0 0 0 .63-1.81c-.723-1.425-2.403-1.784-3.735-2.35.101.663 1.07 1.242.754 2.058-1.282.852-2.633 1.71-4.117 2.184-.704.988-1.993.66-2.645 1.68-.871.198-1.598.913-2.477 1.175a6.11 6.11 0 0 0-2.48 4.746c-.797 1-2.563-.137-3.066 1.3a.9.9 0 0 1-.293.423c-.946-.25-1.899-.473-2.73-1.008-.25-.82-1.688-1.05-1.302-1.973 1.493-2.175 4.125-2.68 5.965-4.285 2.016-1.176 3-3.066 3.051-5.418.348-3.937-2.988-6.508-5.867-8.691-1.774-1.348-3.41-3.11-5.29-4.371-.093-.461-.59-.555-.968-.375-.984.773-2.453.398-3.398 1.257-1.114.528-2.5.399-3.696.715-.285-.136-.683-.086-.844-.422a1.5 1.5 0 0 1 .168-.84c-.375-.113-.367.403-.585.59-1.325 2.5-2.5 4.954-2.63 7.895-.472.64-1.663.566-2.367.816-.59-.105-1.336-.394-1.64-.984-.953 1.219-2.5.879-3.864 1.027-1.093-.093-2.257-.386-3.277.082-.45.043-.941-.437-1.344-.648-.492-.61.032-1.313.043-1.973.547-.41 1.114-.785 1.805-.84 1.25-.449 2.5-1.007 3.95-.84.734.032 1.261-.472 1.679-.964.39-.758.598-1.598.797-2.438l-.082-.168c-.399.242-.82.055-1.262.168-.86.23-1.656.598-2.601.63-2.079-.2-4.297-.337-5.63-2.056-.093-.328-.722-.558-.503-1.007.62-.77 1.574-1.325 2.562-1.137.809.621 1.332 1.27 2.309 1.555 1.137.02 2.144.87 3.277.379.778.167 1.426-.485 2.184-.254.105-1.102.504-2.235.293-3.317-.746-.304-2.352.012-2.645-.926.168-3.261 1.09-6.59 2.309-9.53 1.008-2.048 2.351-4.032 3.234-6.177.442-1.562 1.195-3.671 0-5.082-.367-.132-.441-.605-.336-.964l.168-.168c.715.105 1.922-.485 2.227.503.976 3.477-1.649 6.083-2.813 8.989-1.703 2.91-3.027 6.14-3.402 9.535-.305.766-.297 1.773-.211 2.601.441.368.953.192 1.512.293.652-.492.418-1.617 1.007-2.097.188-.012.348.074.547.043.45-.977.176-2.239.25-3.278-.386-4.125 2.575-7.054 5.082-9.828 1.618-1.828 3.286-3.59 5.082-5.164.286-.023.61-.023.59.336-.093 1.29-.39 2.93.082 4.2q.345 1.381.883 2.687c1.164 1.113 1.617 3.508 3.57 3.316.915-.441 1.332-1.383 2.184-1.886 1.09-1.555 2.602-2.786 3.316-4.54.118-.074.168-.273.336-.207.243-.316.36-.683.465-1.05-1.652-2.47-2.113-5.692-1.554-8.653.199-1.324.406-2.742.796-4.03.442-2.645 1.45-6.102-.379-8.485-.628-.989-1.425-1.61-2.015-2.617-1.625.578-2.938.89-4.621 1.343-.27 3.055-2.055 5.59-2.434 8.707.168.274-.156.621.125.84l.211-.21c1.008-2.141 1.879-4.345 3.149-6.384.148.024.23-.23.378-.082.223.207.649.418.618.63-1.543 2.948-3.559 5.984-4.649 9.113.031.347-.355.914.082 1.05.442.274 1.031.45 1.262.965-.082.188-.125.461-.379.504-.504-.187-.883-.652-1.387-.84-.84-.293-1.605-.777-2.52-.883-1.28 2.07-1.866 4.633-1.76 7.055.472.149.882-.344 1.3-.586a8.4 8.4 0 0 1 4.832-2.351c.43-.528 1.27-.293 1.512-1.008 1.468-3.34 3.515-6.438 4.535-9.953.125-.653.238-1.418.418-2.102l.043-1.723c.187-.242.535-.242.797-.168.41.56.117 1.344.086 1.977-.872 3.695-2.825 6.938-4.329 10.371-.691.938-.933 2.133-1.761 2.942-.535-.157-.871.43-1.387.46-2.363.118-4 1.88-5.797 3.192-.379-.219-.86.305-.965-.293-.242-.809-.062-1.73 0-2.563-.523-.43-1.195.137-1.722-.168-.45-.484-1.164-1.007-.883-1.804-.27-.125-.617.062-.965 0-2.645-.117-5.637.12-8.106-.813-3.812-.902-7.34-2.422-10.543-4.691-1.542-1.258-2.761-3.117-3.863-4.742-.672-.043-1.406-.168-1.722-.801-.125-.766.105-1.93.8-2.371.547-.2 1.563-.25 2.118-.04.367.376.308 1.173.316 1.696 0 .559-.25.938-.715 1.262.434.828 1.18 1.594 1.766 2.394 1.828 2.11 4.316 3.16 6.593 4.45.977.558 2.227.41 3.153 1.093 2.172.082 3.902 1.344 6.129 1.176 1.449-.05 3.297.094 4.746.043.273.012.46.324.758.168.734-.996 1.046-2.984 2.687-2.687.504.042.492 1.101 1.008.671.207-.261.23-.726.629-.797.82-.171 1.406.461 2.226.418.38-.492.368-1.082.586-1.68-.71-4.335 1.66-7.76 2.016-11.76 0-.208-.05-.63.297-.673.176-.062.387-.039.547-.168-.117-.363-.075-.797-.38-1.09-.831 0-1.984.871-2.48-.293-.187-1.207.2-2.543-1.175-3.109-.188-.21 0-.473 0-.715.925-1.594 2.609-2.793 1.988-4.87-.137-1.02-.043-2.364.45-3.274.733-.672 1.91-.528 2.687-.13.554.223.988-.898 1.43-.991Zm0 0"/><path fill="#fff" fill-rule="evenodd" d="M94.938 3.523v.082c-.598-.199-3.7-1.03-4.13-1.546-1.163.46 2.235-.715 1.817-.684 1.113-.285 1.39 1.645 2.313 2.148"/><path fill="none" stroke="#fff" stroke-miterlimit="3.864" stroke-width=".12" d="M94.938 3.523v.082c-.598-.199-3.7-1.03-4.13-1.546-1.163.46 2.235-.715 1.817-.684 1.113-.285 1.39 1.645 2.313 2.148Zm0 0"/><path fill="#fff" d="M95.734 4.742c.473.262 1.145.281 1.22.965.179.746-.548 1.238-1.052 1.594-1.543-.68-2.886-1.88-4.617-2.098l-.168-.168c-1.23-.156-2.648-.21-3.906-.293-.074-.578-.063-1.219.168-1.722 1.312-.653 2.77.113 4.031.46 1.438.422 2.805 1.028 4.324 1.262"/><path fill="none" stroke="#231f20" stroke-miterlimit="3.864" stroke-width=".7000000000000001" d="M95.734 4.742c.473.262 1.145.281 1.22.965.179.746-.548 1.238-1.052 1.594-1.543-.68-2.886-1.88-4.617-2.098l-.168-.168c-1.23-.156-2.648-.21-3.906-.293-.074-.578-.063-1.219.168-1.722 1.312-.653 2.77.113 4.031.46 1.438.422 2.805 1.028 4.324 1.262Zm0 0"/><path fill="#231f20" d="M72.047 5.035c.738 1.824.402 4.5.129 6.278.05-.18.398-.524.418-.778h.168c.515-.48.988-1.07 1.554-1.426.63-.18.461.555.672.84 1.535 2.551 2.5 5.387 2.899 8.356.05 2.047.554 4.285.547 6.468-.137 2.047.113 3.832-.211 5.754-.727.84-2.176.262-3.149.672-.168.012-.304-.168-.379-.293.22-2.886-.367-5.27-.465-8.023-.69-3.645-1.164-6.43-3.253-9.496-.2-1.723.453-4.133.316-5.875-.242-.692.012-1.586-.547-2.14-1.879 1.523-.976 4.28-1.09 6.339-.054.117-.265.168-.379.086-.535-.559-.18-1.313-.46-1.977-.528-2.402.671-4.535 2.308-6.215.684-.03.746.903.922 1.43"/><path fill="none" stroke="#231f20" stroke-miterlimit="3.864" stroke-width=".7000000000000001" d="M72.047 5.035c.738 1.824.402 4.5.129 6.278.05-.18.398-.524.418-.778h.168c.515-.48.988-1.07 1.554-1.426.63-.18.461.555.672.84 1.535 2.551 2.5 5.387 2.899 8.356.05 2.047.554 4.285.547 6.468-.137 2.047.113 3.832-.211 5.754-.727.84-2.176.262-3.149.672-.168.012-.304-.168-.379-.293.22-2.886-.367-5.27-.465-8.023-.69-3.645-1.164-6.43-3.253-9.496-.2-1.723.453-4.133.316-5.875-.242-.692.012-1.586-.547-2.14-1.879 1.523-.976 4.28-1.09 6.339-.054.117-.265.168-.379.086-.535-.559-.18-1.313-.46-1.977-.528-2.402.671-4.535 2.308-6.215.684-.03.746.903.922 1.43Zm0 0"/><path fill="#fff" d="M94.559 7.848c-.012.422-.188.765-.418 1.093-.895 1.164-1.942 2.172-2.48 3.485-.095.734-.177 1.617-.083 2.27-.746.335-1.617.355-2.394.628-.262-.199-.336-.722-.504-1.094.629-.597 1.511-1.257 1.511-2.183-.125-.113-.562-.305-.742-.168-.851 1.176-1.422 1.945-2.84 2.016l-.492-.207c-.262-.895.43-2.008-.586-2.606-.168-.137-.078-.23-.226-.422.683-1.344 2.175-2.246 2.101-3.902 2.426-.328 5.074-.285 7.153 1.09"/><path fill="none" stroke="#231f20" stroke-miterlimit="3.864" stroke-width=".7000000000000001" d="M94.559 7.848c-.012.422-.188.765-.418 1.093-.895 1.164-1.942 2.172-2.48 3.485-.095.734-.177 1.617-.083 2.27-.746.335-1.617.355-2.394.628-.262-.199-.336-.722-.504-1.094.629-.597 1.511-1.257 1.511-2.183-.125-.113-.562-.305-.742-.168-.851 1.176-1.422 1.945-2.84 2.016l-.492-.207c-.262-.895.43-2.008-.586-2.606-.168-.137-.078-.23-.226-.422.683-1.344 2.175-2.246 2.101-3.902 2.426-.328 5.074-.285 7.153 1.09Zm0 0"/><path fill="#231f20" d="M67.39 10.535c-.398.399-.245.106-.8.254-1.598.43-3.172.953-4.871 1.133-.989.336-2.09.746-2.649 1.765-2.875 2.391-6.793 2.215-10.078 3.778-1.437 1.375-2.058 3.234-3.234 4.789-.188.41.379.305.547.504.785.156 1.511.062 2.308 0 .684-.285 1.313-.828 2.102-.715.07.148.219.36.039.504-1.164.683-2.434 1.23-3.906 1.05-.766-.011-1.532-.21-1.973-.84l.043-.421c.852-1.594 1.46-3.387 2.395-4.941 1.386-1.668 4.082-1.684 5.878-2.532 2.332-.808 4.957-1.101 6.426-3.36 1.227-.8 2.793-.968 4.285-1.218.133-.82.133-1.805.965-2.394.754-.547 1.805-.453 2.563-.926.312.062.066 2.27-.04 3.57"/><path fill="none" stroke="#231f20" stroke-miterlimit="3.864" stroke-width=".7000000000000001" d="M67.39 10.535c-.398.399-.245.106-.8.254-1.598.43-3.172.953-4.871 1.133-.989.336-2.09.746-2.649 1.765-2.875 2.391-6.793 2.215-10.078 3.778-1.437 1.375-2.058 3.234-3.234 4.789-.188.41.379.305.547.504.785.156 1.511.062 2.308 0 .684-.285 1.313-.828 2.102-.715.07.148.219.36.039.504-1.164.683-2.434 1.23-3.906 1.05-.766-.011-1.532-.21-1.973-.84l.043-.421c.852-1.594 1.46-3.387 2.395-4.941 1.386-1.668 4.082-1.684 5.878-2.532 2.332-.808 4.957-1.101 6.426-3.36 1.227-.8 2.793-.968 4.285-1.218.133-.82.133-1.805.965-2.394.754-.547 1.805-.453 2.563-.926.312.062.066 2.27-.04 3.57Zm0 0"/><path fill="#231f20" d="M64.363 13.895a.49.49 0 0 1-.336.59c-.504.042-.87-.41-1.3-.422.03.62-.024 1.316-.422 1.808-.356.274-.758.313-1.176.168-.578-.328-.043-1.617-.922-1.305-.328-.597.344-.996.586-1.468 1.133-1.04 2.625-.082 3.57.629"/><path fill="none" stroke="#231f20" stroke-miterlimit="3.864" stroke-width=".12" d="M64.363 13.895a.49.49 0 0 1-.336.59c-.504.042-.87-.41-1.3-.422.03.62-.024 1.316-.422 1.808-.356.274-.758.313-1.176.168-.578-.328-.043-1.617-.922-1.305-.328-.597.344-.996.586-1.468 1.133-1.04 2.625-.082 3.57.629Zm0 0"/><path fill="#231f20" d="M51.07 18.578c-.191.512-.851.61-1.218 1.05.039.743-.16 1.49-.672 2.056-.297.21-.696.41-1.051.21-.473-.19-.516-.703-.293-1.09.754-.945 1.742-2.206 2.98-2.437.106.031.22.094.254.211"/><path fill="none" stroke="#231f20" stroke-miterlimit="3.864" stroke-width=".7000000000000001" d="M51.07 18.578c-.191.512-.851.61-1.218 1.05.039.743-.16 1.49-.672 2.056-.297.21-.696.41-1.051.21-.473-.19-.516-.703-.293-1.09.754-.945 1.742-2.206 2.98-2.437.106.031.22.094.254.211Zm0 0"/><path fill="#fff" d="M54.996 21.582c.043.293-.2.566-.46.629a1.4 1.4 0 0 1-1.009 0c-.379-.188-.136-.578-.082-.84.262-.617.735-.05 1.172-.25z"/><path fill="none" stroke="#fff" stroke-miterlimit="3.864" stroke-width=".7000000000000001" d="M54.996 21.582c.043.293-.2.566-.46.629a1.4 1.4 0 0 1-1.009 0c-.379-.188-.136-.578-.082-.84.262-.617.735-.05 1.172-.25Zm0 0"/><path fill="#231f20" d="M68.73 21.371c0 .484-.472 1.156-.714 1.512-1.184 1-2.676 1.05-4.157 1.43-1.46.68-3.34 1.015-4.62 0-.923-.274-1.954-.36-2.9-.59a.44.44 0 0 1 0-.543c1.524-.086 3.321-.328 4.497.672 2.234.324 4.23-.696 6.172-1.473.652-.375.797-1.387 1.555-1.3z"/><path fill="none" stroke="#231f20" stroke-miterlimit="3.864" stroke-width=".7000000000000001" d="M68.73 21.371c0 .484-.472 1.156-.714 1.512-1.184 1-2.676 1.05-4.157 1.43-1.46.68-3.34 1.015-4.62 0-.923-.274-1.954-.36-2.9-.59a.44.44 0 0 1 0-.543c1.524-.086 3.321-.328 4.497.672 2.234.324 4.23-.696 6.172-1.473.652-.375.797-1.387 1.555-1.3Zm0 0"/><path fill="#231f20" d="M53.988 24.395c-.05 1-1.226 1.71-1.972 2.015-1.332.535-3.286.832-4.536-.082-.378-.492-1.199-1.144-1.136-1.89.148-.106.16-.286.379-.211.976 1.136 2.343 1.89 3.863 1.43 1.062-.368 2.195-.63 3.023-1.47.18-.054.317.07.38.208"/><path fill="none" stroke="#231f20" stroke-miterlimit="3.864" stroke-width=".7000000000000001" d="M53.988 24.395c-.05 1-1.226 1.71-1.972 2.015-1.332.535-3.286.832-4.536-.082-.378-.492-1.199-1.144-1.136-1.89.148-.106.16-.286.379-.211.976 1.136 2.343 1.89 3.863 1.43 1.062-.368 2.195-.63 3.023-1.47.18-.054.317.07.38.208Zm0 0"/><path fill="#231f20" d="M60.71 30.105c.134.297.114.579-.085.84-.566 2.68-1.355 5.262-2.227 7.813-.671 2.12-1.972 3.98-2.562 6.133.168 1.699 1.105 3.086 1.555 4.66l-.211.676c.328.355.672.02 1.05.125.915-.274 1.805-.664 2.563-1.22.355-.241.82-.472 1.258-.253l.129.21c-.496.81-.157 2.071-1.137 2.563-1.613.684-3.305-.074-4.996.168-1.848 0-3.633.082-5.5-.125-1.406-.304-2.5.586-3.488 1.258-.68.652-1.891.39-2.266 1.43-.621 2.172-.895 4.484-1.977 6.469a17 17 0 0 0-1.511 4.996c-.157 1.449.18 2.898.84 4.117.902.312 1.859-.262 2.605-.84.012-.328-.348-.39-.422-.672.024-.484-.723-.758-.418-1.262.219-.218.586-.082.754-.418.035-.378-.355-.601-.46-.925-1.102-2.153.198-4.559.671-6.676.559-.676.328-2.113 1.555-2.059.285.262.652.348 1.008.418a3.43 3.43 0 0 0 1.68-1.258c.85-.261 1.573.282 2.394.336 1.742.262 3.601-.093 5.293.168 1.668.207 3.578.075 5.164.586 1.187.504 1.933.293 2.812-.336.328-.734.2-2.078 1.219-2.265.598.492-.105 1.11 0 1.761-.031.368.105.82-.168 1.094-1.05.766-2.55 1.524-3.906.965-.344.012-.578-.254-.883-.336-1.773-.293-3.684.106-5.332-.504-2.14-.031-4.031-.199-6.047-.672-.894.567-1.742 1.723-2.984 1.258-.25-.281-.555-.082-.668.211-.602 1.742-1.188 3.477-1.598 5.293.106.156-.156.61.168.797.188.902 1.313 1.523 1.008 2.52-.125.367-1.05.472-.461.968.144.387.648.188.672.63.043.21.136.452.043.671-1.168.934-2.492 1.68-4.117 1.598l-.254-.254c-.723-1.91-1.27-4.117-.672-6.215.566-1.473.535-3.184 1.597-4.453.317-.903.618-1.805.965-2.688.367-1.86.254-4.43 2.563-4.957-.586-.312-1.387-.312-2.102-.418-1.039 1.45-1.144 3.297-2.183 4.746-.461.977.16 2.016.129 3.067-.727 1.375-1.965 2.55-2.227 4.113-.148.168-.41.223-.59.086-1.418-.8-2.047-2.363-2.016-3.824.293-1.93.903-3.864 1.262-5.625.094-.098-.011-.36.082-.504.453-1.473.399-3.36 1.305-4.746.492-1.008 2.098-1.64 2.812-2.563 1.618-.777 3.454-.02 5.04-.758 1.269-.05 2.488-.218 3.738-.336.945-.113 1.816.012 2.687-.292-.156-1.333.684-2.364 1.176-3.485 2.445-3.414 4.148-7.14 4.703-11.34-.012-.379-.039-.808.293-1.008.403-.148.54.325.676.543"/><path fill="none" stroke="#231f20" stroke-miterlimit="3.864" stroke-width=".7000000000000001" d="M60.71 30.105c.134.297.114.579-.085.84-.566 2.68-1.355 5.262-2.227 7.813-.671 2.12-1.972 3.98-2.562 6.133.168 1.699 1.105 3.086 1.555 4.66l-.211.676c.328.355.672.02 1.05.125.915-.274 1.805-.664 2.563-1.22.355-.241.82-.472 1.258-.253l.129.21c-.496.81-.157 2.071-1.137 2.563-1.613.684-3.305-.074-4.996.168-1.848 0-3.633.082-5.5-.125-1.406-.304-2.5.586-3.488 1.258-.68.652-1.891.39-2.266 1.43-.621 2.172-.895 4.484-1.977 6.469a17 17 0 0 0-1.511 4.996c-.157 1.449.18 2.898.84 4.117.902.312 1.859-.262 2.605-.84.012-.328-.348-.39-.422-.672.024-.484-.723-.758-.418-1.262.219-.218.586-.082.754-.418.035-.378-.355-.601-.46-.925-1.102-2.153.198-4.559.671-6.676.559-.676.328-2.113 1.555-2.059.285.262.652.348 1.008.418a3.43 3.43 0 0 0 1.68-1.258c.85-.261 1.573.282 2.394.336 1.742.262 3.601-.093 5.293.168 1.668.207 3.578.075 5.164.586 1.187.504 1.933.293 2.812-.336.328-.734.2-2.078 1.219-2.265.598.492-.105 1.11 0 1.761-.031.368.105.82-.168 1.094-1.05.766-2.55 1.524-3.906.965-.344.012-.578-.254-.883-.336-1.773-.293-3.684.106-5.332-.504-2.14-.031-4.031-.199-6.047-.672-.894.567-1.742 1.723-2.984 1.258-.25-.281-.555-.082-.668.211-.602 1.742-1.188 3.477-1.598 5.293.106.156-.156.61.168.797.188.902 1.313 1.523 1.008 2.52-.125.367-1.05.472-.461.968.144.387.648.188.672.63.043.21.136.452.043.671-1.168.934-2.492 1.68-4.117 1.598l-.254-.254c-.723-1.91-1.27-4.117-.672-6.215.566-1.473.535-3.184 1.597-4.453.317-.903.618-1.805.965-2.688.367-1.86.254-4.43 2.563-4.957-.586-.312-1.387-.312-2.102-.418-1.039 1.45-1.144 3.297-2.183 4.746-.461.977.16 2.016.129 3.067-.727 1.375-1.965 2.55-2.227 4.113-.148.168-.41.223-.59.086-1.418-.8-2.047-2.363-2.016-3.824.293-1.93.903-3.864 1.262-5.625.094-.098-.011-.36.082-.504.453-1.473.399-3.36 1.305-4.746.492-1.008 2.098-1.64 2.812-2.563 1.618-.777 3.454-.02 5.04-.758 1.269-.05 2.488-.218 3.738-.336.945-.113 1.816.012 2.687-.292-.156-1.333.684-2.364 1.176-3.485 2.445-3.414 4.148-7.14 4.703-11.34-.012-.379-.039-.808.293-1.008.403-.148.54.325.676.543Zm0 0"/><path fill="#fff" d="m80.992 30.863.38.84c-.388.777-.411 1.7-.798 2.477-.484.105-1.05.148-1.511.168-.348-.262-.485-.711-.293-1.09.574-.969.69-2.153 1.593-2.942.442-.21.516.329.63.547"/><path fill="none" stroke="#231f20" stroke-miterlimit="3.864" stroke-width=".7000000000000001" d="m80.992 30.863.38.84c-.388.777-.411 1.7-.798 2.477-.484.105-1.05.148-1.511.168-.348-.262-.485-.711-.293-1.09.574-.969.69-2.153 1.593-2.942.442-.21.516.329.63.547Zm0 0"/><path fill="#fff" d="M111.82 39.121c3.414 1.66 6.11 4.32 10.246 3.711 2.051-.852 3.95-1.46 6.387-1.23.535 0 1.121-.45 1.3.054 1.071 1.133 2.122 2.457 2.395 4.074.22.766.536 1.618.586 2.31-.312.315-.703-.25-1.132 0-1.04.769.168 1.722.085 2.648.231 1.015.407 2.12.208 3.105-.45.285-.618-.344-1.047-.461-.286-.086-.559-.316-.883-.168-.621.523.082 1.125.125 1.68.883 1.91 1.332 4.254 1.05 6.383-.82 1.242-1.175 2.773-2.519 3.78-1.2.735-2.215 1.766-2.73 3.11-.075.86-.41 1.817-.043 2.645-.188.281-.524.011-.754-.086-3.184-2.223-.707-6.59-.184-9.617.934-2.625 1.262-5.375 1.945-8.106.16-3.527-.367-7.148-3.738-8.86-.555-.03-1.144-.913-1.68-.503-.921.828-.789 2.601-.644 3.652.883 3.34.414 7.422-1.578 10.246-.528.098-.602.746-1.094.926-1.867 1.531-2.848 3.613-3.484 5.84-.938 3.84 1.246 6.98 4.113 8.86.535.546 1.293.757 1.723 1.386l.097.938c-.547.64-1.148.23-1.82.671-1.344.715-2.645 2.254-3.988 2.97-2.532 1.89-4.485 3.976-4.914 6.929-.422.777-1.125-.086-1.766.25-.89.094-1.73.695-2.184 1.512-.996-.04-1.96-.375-2.812-.899-.23-.23-.652.184-.8-.066 1.753-1.407 3.265-2.762 5.042-4.2 1.152-1.07 2.492-2.007 3.809-2.785.816-.945 2.078-1.574 2.39-2.843.328-.86.235-2.395-.449-3.149-1.058-1.387-2.683-1.566-4.027-2.351-2.25-.633-4.559-2.184-5.754-4.286-1.785-2.793-2.426-6.164-4.875-8.566a6.66 6.66 0 0 0-3.067-1.305c-.921.14-2.14-.722-2.601.422.062.547-.652 1.219.082 1.598 1.691.07 3.613.168 4.664 1.55.715.169.89.946 1.344 1.387 2.37 3.602 3.633 9.207 8.691 10.04.41.64.695 1.406 1.18 2.058-.309.543-1.106.367-1.64.797-1.313.473-2.427 1.426-3.778 1.805-.844.87-1.984 1.406-2.899 2.101-.558-.086-.726.61-1.136.797-1.364 1.094-1.805 2.3-2.098 3.906-.578.313-1.312.672-1.973.797-.18.453-.695.547-.968.84-1.051-.207-2.121-.617-2.73-1.637.304-.715 1.144-.672 1.679-1.176 1.082-.796 2.5-1.039 3.488-2.058 1.418-.945 2.824-2.488 3.57-4.074 1.047-2.34.891-6.004-.925-7.938-2.414-3.035-5.836-4.61-8.524-7.347-.402-.57-1.125-.36-1.43-.97a9.4 9.4 0 0 1 2.395.169c.211.297.598.129.883.254.672.168 1.176 1.257 1.848 1.3.242.075.691-.011.964-.379-.23-1.152-1.597-.984-2.308-1.68-1.711-.566-3.656-1.1-5.543-.839-.727.484-1.649.504-2.395.926-1.61-.223-3.277.418-4.87.168-.18.043-.329.386-.423.043q.694-1.482 1.258-3.028c3.395-.168 6.649-1.164 9.828-2.097 2.016-.946 3.938-2.239 5.672-3.782 3.043-3.578 3.695-8.218 5.922-12.18.242.466.977.192 1.387.087.636-.621 1.668.093 2.351-.422.797-.219 1.75-.051 2.477-.461 1.094.105 2.004.555 3.023.824"/><path fill="none" stroke="#231f20" stroke-miterlimit="3.864" stroke-width=".7000000000000001" d="M111.82 39.121c3.414 1.66 6.11 4.32 10.246 3.711 2.051-.852 3.95-1.46 6.387-1.23.535 0 1.121-.45 1.3.054 1.071 1.133 2.122 2.457 2.395 4.074.22.766.536 1.618.586 2.31-.312.315-.703-.25-1.132 0-1.04.769.168 1.722.085 2.648.231 1.015.407 2.12.208 3.105-.45.285-.618-.344-1.047-.461-.286-.086-.559-.316-.883-.168-.621.523.082 1.125.125 1.68.883 1.91 1.332 4.254 1.05 6.383-.82 1.242-1.175 2.773-2.519 3.78-1.2.735-2.215 1.766-2.73 3.11-.075.86-.41 1.817-.043 2.645-.188.281-.524.011-.754-.086-3.184-2.223-.707-6.59-.184-9.617.934-2.625 1.262-5.375 1.945-8.106.16-3.527-.367-7.148-3.738-8.86-.555-.03-1.144-.913-1.68-.503-.921.828-.789 2.601-.644 3.652.883 3.34.414 7.422-1.578 10.246-.528.098-.602.746-1.094.926-1.867 1.531-2.848 3.613-3.484 5.84-.938 3.84 1.246 6.98 4.113 8.86.535.546 1.293.757 1.723 1.386l.097.938c-.547.64-1.148.23-1.82.671-1.344.715-2.645 2.254-3.988 2.97-2.532 1.89-4.485 3.976-4.914 6.929-.422.777-1.125-.086-1.766.25-.89.094-1.73.695-2.184 1.512-.996-.04-1.96-.375-2.812-.899-.23-.23-.652.184-.8-.066 1.753-1.407 3.265-2.762 5.042-4.2 1.152-1.07 2.492-2.007 3.809-2.785.816-.945 2.078-1.574 2.39-2.843.328-.86.235-2.395-.449-3.149-1.058-1.387-2.683-1.566-4.027-2.351-2.25-.633-4.559-2.184-5.754-4.286-1.785-2.793-2.426-6.164-4.875-8.566a6.66 6.66 0 0 0-3.067-1.305c-.921.14-2.14-.722-2.601.422.062.547-.652 1.219.082 1.598 1.691.07 3.613.168 4.664 1.55.715.169.89.946 1.344 1.387 2.37 3.602 3.633 9.207 8.691 10.04.41.64.695 1.406 1.18 2.058-.309.543-1.106.367-1.64.797-1.313.473-2.427 1.426-3.778 1.805-.844.87-1.984 1.406-2.899 2.101-.558-.086-.726.61-1.136.797-1.364 1.094-1.805 2.3-2.098 3.906-.578.313-1.312.672-1.973.797-.18.453-.695.547-.968.84-1.051-.207-2.121-.617-2.73-1.637.304-.715 1.144-.672 1.679-1.176 1.082-.796 2.5-1.039 3.488-2.058 1.418-.945 2.824-2.488 3.57-4.074 1.047-2.34.891-6.004-.925-7.938-2.414-3.035-5.836-4.61-8.524-7.347-.402-.57-1.125-.36-1.43-.97a9.4 9.4 0 0 1 2.395.169c.211.297.598.129.883.254.672.168 1.176 1.257 1.848 1.3.242.075.691-.011.964-.379-.23-1.152-1.597-.984-2.308-1.68-1.711-.566-3.656-1.1-5.543-.839-.727.484-1.649.504-2.395.926-1.61-.223-3.277.418-4.87.168-.18.043-.329.386-.423.043q.694-1.482 1.258-3.028c3.395-.168 6.649-1.164 9.828-2.097 2.016-.946 3.938-2.239 5.672-3.782 3.043-3.578 3.695-8.218 5.922-12.18.242.466.977.192 1.387.087.636-.621 1.668.093 2.351-.422.797-.219 1.75-.051 2.477-.461 1.094.105 2.004.555 3.023.824Zm0 0"/><path fill="#fff" d="M100.648 38.633c-.64 3.37-2.402 6.562-3.527 9.785-.418.598-2.766 3.289-3.27 3.855 0 0-4.5 2.329-8.488 3.118-1.25.386-2.636.87-3.992 1.007-.262-.597.41-1.312-.418-1.636l-.547-.086c-.18-.578.387-.953.38-1.512.722-1.164 2.023-1.816 3.19-2.352.852-.859 1.965-1.28 2.731-2.183.305 0 .43.367.547.586.742.883 1.719 1.566 2.687 2.101.817-.218 1.133-1.156 1.512-1.804 1.25-1.809 2.234-3.782 3.36-5.672.714-1.5 1.648-2.906 2.14-4.492.137-.328-.242-.453-.168-.758.89.012 1.817.347 2.688.043l.254.086c.175-.254.617-.38.921-.38z"/><path fill="none" stroke="#231f20" stroke-miterlimit="3.864" stroke-width=".7000000000000001" d="M100.648 38.633c-.64 3.37-2.402 6.562-3.527 9.785-.418.598-2.766 3.289-3.27 3.855 0 0-4.5 2.329-8.488 3.118-1.25.386-2.636.87-3.992 1.007-.262-.597.41-1.312-.418-1.636l-.547-.086c-.18-.578.387-.953.38-1.512.722-1.164 2.023-1.816 3.19-2.352.852-.859 1.965-1.28 2.731-2.183.305 0 .43.367.547.586.742.883 1.719 1.566 2.687 2.101.817-.218 1.133-1.156 1.512-1.804 1.25-1.809 2.234-3.782 3.36-5.672.714-1.5 1.648-2.906 2.14-4.492.137-.328-.242-.453-.168-.758.89.012 1.817.347 2.688.043l.254.086c.175-.254.617-.38.921-.38Zm0 0"/><path fill="#fff" d="M83.809 38.8c.113 2.153.367 3.833.921 5.798.36.722.567 1.5.926 2.226.336.305.145.703.043 1.133-1.07 1.29-2.3 2.059-3.906 2.688-.914.671-2.332 2.101-2.48 3.277l-.293 1.133c-1.356.074-1.848.597-3.149.043l-.59-.211c.117-3.153-.535-6.45 1.848-8.864 1.89-2.507 4.316-5.058 6.68-7.222"/><path fill="none" stroke="#231f20" stroke-miterlimit="3.864" stroke-width=".7000000000000001" d="M83.809 38.8c.113 2.153.367 3.833.921 5.798.36.722.567 1.5.926 2.226.336.305.145.703.043 1.133-1.07 1.29-2.3 2.059-3.906 2.688-.914.671-2.332 2.101-2.48 3.277l-.293 1.133c-1.356.074-1.848.597-3.149.043l-.59-.211c.117-3.153-.535-6.45 1.848-8.864 1.89-2.507 4.316-5.058 6.68-7.222Zm0 0"/><path fill="#fff" d="M54.031 46.36c.43 1.261.684 2.605.926 3.949l.332.254c-.953.69-2.727.058-3.902.374-1.114-.101-2.239-.207-3.278.254l-1.132.754c-.348.043-.329-.535-.715-.547-1.176.075-2.918-.996-3.528.59-.597 1.23-.808 2.625-1.597 3.782-.61 1.132-.617 2.402-.168 3.609-.512 1.101-1.32 2.207-2.016 3.234-.555-.02-.566-.629-.715-1.008l-.125-1.425c.442-1.914.957-3.867 1.219-5.797.211-.274.293-.64.254-.969.418-.902.144-2.117.879-2.852.2-1.398 1.773-1.652 2.605-2.605 1.282-.578 2.762.113 3.989-.59 1.437-.008 2.941-.281 4.328-.418.883-.074 1.71-.515 2.644-.59"/><path fill="none" stroke="#231f20" stroke-miterlimit="3.864" stroke-width=".7000000000000001" d="M54.031 46.36c.43 1.261.684 2.605.926 3.949l.332.254c-.953.69-2.727.058-3.902.374-1.114-.101-2.239-.207-3.278.254l-1.132.754c-.348.043-.329-.535-.715-.547-1.176.075-2.918-.996-3.528.59-.597 1.23-.808 2.625-1.597 3.782-.61 1.132-.617 2.402-.168 3.609-.512 1.101-1.32 2.207-2.016 3.234-.555-.02-.566-.629-.715-1.008l-.125-1.425c.442-1.914.957-3.867 1.219-5.797.211-.274.293-.64.254-.969.418-.902.144-2.117.879-2.852.2-1.398 1.773-1.652 2.605-2.605 1.282-.578 2.762.113 3.989-.59 1.437-.008 2.941-.281 4.328-.418.883-.074 1.71-.515 2.644-.59Zm0 0"/><path fill="#fff" d="M77.887 56.063c.89.156 1.425-.075 2.27-.293-.106 2.425-1.63 4.25-2.563 6.382-1.137 2.11-1.965 4.243-2.313 6.72-.566.23-1.363.273-1.93.124-.304-.25-.496-1.09-.925-.922-1.02 1.29-2.688 1.309-4.074 1.465-.922-.273-2.227-.605-3.149-.246-.187-.117-.074.07-.21-.168.116-.496-.22-.926.335-1.094.902-.18 1.723-.66 2.606-.672.199-.597.828.336 1.175.125.954-.074 2.54-.64 3.192-1.593.617-.934.734-2.059 1.176-3.067.46-2.426.218-4.87 1.05-7.14 1.153.379 2.121.695 3.36.379"/><path fill="none" stroke="#231f20" stroke-miterlimit="3.864" stroke-width=".17500000000000002" d="M77.887 56.063c.89.156 1.425-.075 2.27-.293-.106 2.425-1.63 4.25-2.563 6.382-1.137 2.11-1.965 4.243-2.313 6.72-.566.23-1.363.273-1.93.124-.304-.25-.496-1.09-.925-.922-1.02 1.29-2.688 1.309-4.074 1.465-.922-.273-2.227-.605-3.149-.246-.187-.117-.074.07-.21-.168.116-.496-.22-.926.335-1.094.902-.18 1.723-.66 2.606-.672.199-.597.828.336 1.175.125.954-.074 2.54-.64 3.192-1.593.617-.934.734-2.059 1.176-3.067.46-2.426.218-4.87 1.05-7.14 1.153.379 2.121.695 3.36.379Zm0 0"/><path fill="#231f20" d="M47.523 70.047c.48.652 1.993.832 1.47 1.933-.684 1.836-1.188 3.832-2.817 5.207l-1.719 1.22-.336-.044c-.976-1.742-2.387-3.347-2.351-5.46l.082-.25c1.71-.864 3.265-2.208 4.746-3.278.441-.02.535.559.925.672"/><path fill="none" stroke="#231f20" stroke-miterlimit="3.864" stroke-width=".12" d="M47.523 70.047c.48.652 1.993.832 1.47 1.933-.684 1.836-1.188 3.832-2.817 5.207l-1.719 1.22-.336-.044c-.976-1.742-2.387-3.347-2.351-5.46l.082-.25c1.71-.864 3.265-2.208 4.746-3.278.441-.02.535.559.925.672Zm0 0"/><path fill="#231f20" d="M89.645 84.496c.902 1.438 2.457 2.195 4.03 2.434.56.379-.167.726-.167 1.136-.586 1.438-1.133 3.559-3.106 3.653-1.156.199-2.12-.285-3.066-.715-.988-.043-2.34-.524-3.11.254-.406.062-.597-.297-.84-.465l.044-.293c1.437-2.496 3.812-4.355 6.047-6.004z"/><path fill="none" stroke="#231f20" stroke-miterlimit="3.864" stroke-width=".12" d="M89.645 84.496c.902 1.438 2.457 2.195 4.03 2.434.56.379-.167.726-.167 1.136-.586 1.438-1.133 3.559-3.106 3.653-1.156.199-2.12-.285-3.066-.715-.988-.043-2.34-.524-3.11.254-.406.062-.597-.297-.84-.465l.044-.293c1.437-2.496 3.812-4.355 6.047-6.004Zm0 0"/><path fill="#231f20" d="M103 89.45c.559.609 1.66.16 2.059.882-.211 1.43-1.48 2.406-2.227 3.613-.48.89-1.375.723-2.184.797-.933-.21-1.953-.23-2.812-.629-1.125.043-2.016-.105-3.066.125-.305-.074-.727-.156-.84-.418.285-1.273 1.293-2.132 1.972-3.234 1.145-1.04 2.25-2.363 3.614-2.941 1.218.472 2.09 1.773 3.484 1.804"/><path fill="none" stroke="#231f20" stroke-miterlimit="3.864" stroke-width=".12" d="M103 89.45c.559.609 1.66.16 2.059.882-.211 1.43-1.48 2.406-2.227 3.613-.48.89-1.375.723-2.184.797-.933-.21-1.953-.23-2.812-.629-1.125.043-2.016-.105-3.066.125-.305-.074-.727-.156-.84-.418.285-1.273 1.293-2.132 1.972-3.234 1.145-1.04 2.25-2.363 3.614-2.941 1.218.472 2.09 1.773 3.484 1.804Zm0 0"/></svg>