<svg xmlns="http://www.w3.org/2000/svg" fill="none" viewBox="0 0 134 127"><path fill="#231f20" d="M72.26 1.163c3.292-1.469 4.625-.302 5.486.651.713.62 1.68 2.197 1.848 3.25.688.275 1.568.323 1.791 1.135.323 1.375-.166 3.12-1.344 3.959-.505.28-.406 1.093-1.062.62-.979 1.776-1.947 3.427-3.192 5.15-.39.797-1.568 1.927-1.287 2.797.49-.027.995-.374 1.454-.167.322 1.72 2.208 2.224 3.005 3.75 4.661 7.563-1.824 16.074-.016 24.193.35 1.354.052 2.672.817 3.865.813-.688 1.834.125 2.86-.057 2.197-.224 3.875-1.178 5.88-1.85.292-.066.63.084.614.391-.297.647-.223 1.292-.39 1.907.6.39 1.063-.208 1.568-.391 2.323-.645 4.796-1.245 7.224-1.344l3.411.896a132 132 0 0 0 8.286 5.093c1.766.574 4.162 1.136 5.828-.057.84.09 1.187-.681 1.902-.896 1.625-.937 3.74-.713 5.6-1.061 1.525.322 2.858 1.12 4.202 1.848 1.286 1.229 2.838 2.546 3.192 4.256.896 2.53 1.62 5.124 2.746 7.562-.016.36.066.766-.282 1.004-.969.126-1.948-.405-2.912-.613-.464-.267-.844-.887-1.344-.563 1.23 2.943 1.61 5.954 1.287 9.182-.125.381-.505.354-.839.338-.661-.166-.978-.826-1.681-.896.405 2.73.713 5.627-.057 8.287-.798 1.948-1.974 3.933-3.751 5.432-1.568 1.973-2.14 5.267-.896 7.507.125.416-.151.77-.563.728-.64.01-.489-.87-1.172-.787-.728-.656-1.79-.739-2.634-1.228-2.88-1.74-3.683-5.324-3.079-8.568.953-7.885 5.937-15.573 3.251-23.912-.886-1.484-2.328-3.235-4.262-3.192l-.166.224c.073 2.181.996 4.228.84 6.493.156 1.85-.21 3.991-.559 5.767-.672 3-2.52 5.77-5.093 7.62-2.746 2.813-4.271 7.027-2.636 10.973 1.11 3.568 4.114 4.995 6.666 7.334.334.041.475.306.502.62-.111.781-.054 1.86.17 2.573-.057.296-.057.729-.448.787-3.04.724-5.088 3.462-7.801 4.833-2.927 2.255-6.115 4.796-6.48 8.604-.156.744-.728 1.077-1.285 1.457-1.152-.546-2.678-.493-3.64.391-.283.657-.787 1.021-1.346 1.453-1.874-.306-3.566-1.088-5.265-1.844-.333-.405-.937-.52-1.062-1.066l.224-.896c3.135-2.142 6.213-4.912 9.073-7.615 1.636-1.568 3.61-2.813 5.093-4.645.45-.735.737-1.558.84-2.414-.964-1.9-3.204-2.378-4.98-3.133.135.884 1.427 1.656 1.005 2.744-1.709 1.136-3.51 2.28-5.489 2.912-.939 1.317-2.657.88-3.527 2.24-1.16.264-2.13 1.217-3.302 1.567a8.14 8.14 0 0 0-3.307 6.328c-1.062 1.333-3.417-.183-4.088 1.733a1.2 1.2 0 0 1-.39.564c-1.262-.333-2.532-.631-3.64-1.344-.334-1.093-2.251-1.4-1.737-2.631 1.991-2.9 5.5-3.573 7.954-5.713 2.688-1.568 4-4.088 4.068-7.224.464-5.25-3.984-8.677-7.823-11.588-2.365-1.797-4.547-4.147-7.053-5.828-.124-.615-.787-.74-1.29-.5-1.313 1.03-3.272.53-4.532 1.676-1.485.704-3.333.532-4.927.953-.38-.181-.911-.114-1.126-.562a2 2 0 0 1 .224-1.12c-.5-.151-.49.537-.78.786-1.767 3.334-3.333 6.606-3.507 10.527-.629.853-2.217.755-3.155 1.088-.787-.14-1.782-.525-2.187-1.312-1.27 1.625-3.334 1.172-5.152 1.37-1.457-.125-3.01-.515-4.37.109-.6.057-1.254-.583-1.791-.864-.656-.814.042-1.751.057-2.631.73-.547 1.485-1.047 2.407-1.12 1.666-.599 3.333-1.343 5.266-1.12.979.043 1.681-.63 2.239-1.285.52-1.011.797-2.131 1.063-3.251l-.11-.224c-.532.323-1.093.073-1.682.224-1.147.307-2.209.797-3.468.84-2.773-.267-5.73-.45-7.507-2.741-.124-.438-.963-.744-.67-1.343.826-1.027 2.098-1.767 3.415-1.516 1.079.828 1.776 1.693 3.079 2.073 1.516.027 2.858 1.16 4.37.506 1.036.222 1.9-.647 2.911-.339.14-1.47.672-2.98.39-4.423-.994-.405-3.135.016-3.526-1.234.224-4.348 1.453-8.787 3.079-12.707 1.344-2.73 3.135-5.376 4.312-8.236.59-2.083 1.593-4.895 0-6.776-.49-.176-.588-.807-.448-1.285l.224-.224c.953.14 2.563-.647 2.97.67 1.3 4.636-2.2 8.111-3.751 11.986-2.271 3.88-4.037 8.186-4.537 12.713-.406 1.021-.396 2.364-.28 3.468.587.49 1.27.256 2.015.39.87-.655.557-2.155 1.343-2.795.25-.016.464.098.73.057.6-1.303.234-2.985.332-4.37-.514-5.5 3.434-9.406 6.776-13.105 2.158-2.437 4.382-4.786 6.776-6.885.382-.03.814-.03.787.448-.124 1.72-.52 3.907.11 5.6q.46 1.841 1.177 3.583c1.552 1.484 2.156 4.677 4.76 4.421 1.22-.588 1.776-1.844 2.912-2.515 1.453-2.073 3.47-3.714 4.421-6.053.157-.099.224-.364.448-.276.324-.421.48-.91.62-1.4-2.203-3.293-2.817-7.59-2.072-11.537.265-1.766.541-3.656 1.061-5.374.59-3.526 1.934-8.136-.505-11.313-.837-1.319-1.9-2.147-2.687-3.49-2.166.771-3.917 1.187-6.16 1.791-.36 4.074-2.74 7.454-3.246 11.61.224.365-.208.828.166 1.12l.282-.28c1.344-2.855 2.505-5.794 4.199-8.512.197.032.306-.307.503-.11.298.276.866.558.825.84-2.058 3.931-4.746 7.979-6.2 12.151.042.463-.473 1.219.11 1.4.59.365 1.375.6 1.683 1.287-.11.25-.167.614-.505.672-.672-.25-1.178-.87-1.85-1.12-1.12-.391-2.14-1.036-3.36-1.178-1.706 2.76-2.488 6.178-2.346 9.407.629.199 1.175-.459 1.733-.781a11.2 11.2 0 0 1 6.443-3.135c.573-.704 1.693-.39 2.015-1.344 1.958-4.453 4.687-8.584 6.047-13.27.167-.871.317-1.891.557-2.803l.058-2.298c.25-.322.713-.322 1.063-.224.546.747.156 1.792.114 2.636-1.163 4.927-3.767 9.251-5.772 13.828-.921 1.251-1.244 2.844-2.348 3.923-.713-.21-1.161.573-1.85.613-3.15.158-5.332 2.507-7.728 4.256-.506-.292-1.147.407-1.287-.39-.323-1.079-.083-2.307 0-3.418-.697-.573-1.593.183-2.296-.224-.6-.645-1.552-1.342-1.178-2.405-.36-.167-.822.083-1.286 0-3.527-.156-7.516.16-10.808-1.084-5.083-1.203-9.787-3.23-14.058-6.255-2.055-1.677-3.68-4.156-5.15-6.322-.896-.058-1.875-.224-2.296-1.068-.167-1.022.14-2.574 1.067-3.162.729-.266 2.084-.333 2.823-.053.49.501.411 1.564.422 2.261 0 .746-.334 1.251-.954 1.683.58 1.104 1.574 2.125 2.355 3.192 2.438 2.813 5.755 4.213 8.79 5.933 1.303.744 2.97.547 4.205 1.458 2.896.109 5.203 1.792 8.172 1.568 1.932-.067 4.396.125 6.328.057.364.016.613.432 1.01.224.98-1.328 1.395-3.979 3.583-3.583.672.056.656 1.468 1.344.895.276-.348.307-.968.839-1.063 1.093-.228 1.875.615 2.968.558.507-.656.49-1.443.781-2.24-.947-5.78 2.214-10.347 2.688-15.68 0-.278-.066-.84.396-.898.235-.082.516-.052.73-.224-.156-.484-.1-1.062-.507-1.453-1.108 0-2.645 1.161-3.307-.39-.25-1.61.267-3.391-1.566-4.146-.251-.28 0-.63 0-.953 1.233-2.126 3.478-3.724 2.65-6.494-.182-1.36-.057-3.152.6-4.365.977-.896 2.547-.704 3.583-.173.739.297 1.316-1.198 1.905-1.322"/><path stroke="#231f20" stroke-miterlimit="3.864" stroke-width=".933" d="M72.26 1.163c3.292-1.469 4.625-.302 5.486.651.713.62 1.68 2.197 1.848 3.25.688.275 1.568.323 1.791 1.135.323 1.375-.166 3.12-1.344 3.959-.505.28-.406 1.093-1.062.62-.979 1.776-1.947 3.427-3.192 5.15-.39.797-1.568 1.927-1.287 2.797.49-.027.995-.374 1.454-.167.322 1.72 2.208 2.224 3.005 3.75 4.661 7.563-1.824 16.074-.016 24.193.35 1.354.052 2.672.817 3.865.813-.688 1.834.125 2.86-.057 2.197-.224 3.875-1.178 5.88-1.85.292-.066.63.084.614.391-.297.647-.223 1.292-.39 1.907.6.39 1.063-.208 1.568-.391 2.323-.645 4.796-1.245 7.224-1.344l3.411.896a132 132 0 0 0 8.286 5.093c1.766.574 4.162 1.136 5.828-.057.84.09 1.187-.681 1.902-.896 1.625-.937 3.74-.713 5.6-1.061 1.525.322 2.858 1.12 4.202 1.848 1.286 1.229 2.838 2.546 3.192 4.256.896 2.53 1.62 5.124 2.746 7.562-.016.36.066.766-.282 1.004-.969.126-1.948-.405-2.912-.613-.464-.267-.844-.887-1.344-.563 1.23 2.943 1.61 5.954 1.287 9.182-.125.381-.505.354-.839.338-.661-.166-.978-.826-1.681-.896.405 2.73.713 5.627-.057 8.287-.798 1.948-1.974 3.933-3.751 5.432-1.568 1.973-2.14 5.267-.896 7.507.125.416-.151.77-.563.728-.64.01-.489-.87-1.172-.787-.728-.656-1.79-.739-2.634-1.228-2.88-1.74-3.683-5.324-3.079-8.568.953-7.885 5.937-15.573 3.251-23.912-.886-1.484-2.328-3.235-4.262-3.192l-.166.224c.073 2.181.996 4.228.84 6.493.156 1.85-.21 3.991-.559 5.767-.672 3-2.52 5.77-5.093 7.62-2.746 2.813-4.271 7.027-2.636 10.973 1.11 3.568 4.114 4.995 6.666 7.334.334.041.475.306.502.62-.111.781-.054 1.86.17 2.573-.057.296-.057.729-.448.787-3.04.724-5.088 3.462-7.801 4.833-2.927 2.255-6.115 4.796-6.48 8.604-.156.744-.728 1.077-1.285 1.457-1.152-.546-2.678-.493-3.64.391-.283.657-.787 1.021-1.346 1.453-1.874-.306-3.566-1.088-5.265-1.844-.333-.405-.937-.52-1.062-1.066l.224-.896c3.135-2.142 6.213-4.912 9.073-7.615 1.636-1.568 3.61-2.813 5.093-4.645.45-.735.737-1.558.84-2.414-.964-1.9-3.204-2.378-4.98-3.133.135.884 1.427 1.656 1.005 2.744-1.709 1.136-3.51 2.28-5.489 2.912-.939 1.317-2.657.88-3.527 2.24-1.16.264-2.13 1.217-3.302 1.567a8.14 8.14 0 0 0-3.307 6.328c-1.062 1.333-3.417-.183-4.088 1.733a1.2 1.2 0 0 1-.39.564c-1.262-.333-2.532-.631-3.64-1.344-.334-1.093-2.251-1.4-1.737-2.631 1.991-2.9 5.5-3.573 7.954-5.713 2.688-1.568 4-4.088 4.068-7.224.464-5.25-3.984-8.677-7.823-11.588-2.365-1.797-4.547-4.147-7.053-5.828-.124-.615-.787-.74-1.29-.5-1.313 1.03-3.272.53-4.532 1.676-1.485.704-3.333.532-4.927.953-.38-.181-.911-.114-1.126-.562a2 2 0 0 1 .224-1.12c-.5-.151-.49.537-.78.786-1.767 3.334-3.333 6.606-3.507 10.527-.629.853-2.217.755-3.155 1.088-.787-.14-1.782-.525-2.187-1.312-1.27 1.625-3.334 1.172-5.152 1.37-1.457-.125-3.01-.515-4.37.109-.6.057-1.254-.583-1.791-.864-.656-.814.042-1.751.057-2.631.73-.547 1.485-1.047 2.407-1.12 1.666-.599 3.333-1.343 5.266-1.12.979.043 1.681-.63 2.239-1.285.52-1.011.797-2.131 1.063-3.251l-.11-.224c-.532.323-1.093.073-1.682.224-1.147.307-2.209.797-3.468.84-2.773-.267-5.73-.45-7.507-2.741-.124-.438-.963-.744-.67-1.343.826-1.027 2.098-1.767 3.415-1.516 1.079.828 1.776 1.693 3.079 2.073 1.516.027 2.858 1.16 4.37.506 1.036.222 1.9-.647 2.911-.339.14-1.47.672-2.98.39-4.423-.994-.405-3.135.016-3.526-1.234.224-4.348 1.453-8.787 3.079-12.707 1.344-2.73 3.135-5.376 4.312-8.236.59-2.083 1.593-4.895 0-6.776-.49-.176-.588-.807-.448-1.285l.224-.224c.953.14 2.563-.647 2.97.67 1.3 4.636-2.2 8.111-3.751 11.986-2.271 3.88-4.037 8.186-4.537 12.713-.406 1.021-.396 2.364-.28 3.468.587.49 1.27.256 2.015.39.87-.655.557-2.155 1.343-2.795.25-.016.464.098.73.057.6-1.303.234-2.985.332-4.37-.514-5.5 3.434-9.406 6.776-13.105 2.158-2.437 4.382-4.786 6.776-6.885.382-.03.814-.03.787.448-.124 1.72-.52 3.907.11 5.6q.46 1.841 1.177 3.583c1.552 1.484 2.156 4.677 4.76 4.421 1.22-.588 1.776-1.844 2.912-2.515 1.453-2.073 3.47-3.714 4.421-6.053.157-.099.224-.364.448-.276.324-.421.48-.91.62-1.4-2.203-3.293-2.817-7.59-2.072-11.537.265-1.766.541-3.656 1.061-5.374.59-3.526 1.934-8.136-.505-11.313-.837-1.319-1.9-2.147-2.687-3.49-2.166.771-3.917 1.187-6.16 1.791-.36 4.074-2.74 7.454-3.246 11.61.224.365-.208.828.166 1.12l.282-.28c1.344-2.855 2.505-5.794 4.199-8.512.197.032.306-.307.503-.11.298.276.866.558.825.84-2.058 3.931-4.746 7.979-6.2 12.151.042.463-.473 1.219.11 1.4.59.365 1.375.6 1.683 1.287-.11.25-.167.614-.505.672-.672-.25-1.178-.87-1.85-1.12-1.12-.391-2.14-1.036-3.36-1.178-1.706 2.76-2.488 6.178-2.346 9.407.629.199 1.175-.459 1.733-.781a11.2 11.2 0 0 1 6.443-3.135c.573-.704 1.693-.39 2.015-1.344 1.958-4.453 4.687-8.584 6.047-13.27.167-.871.317-1.891.557-2.803l.058-2.298c.25-.322.713-.322 1.063-.224.546.747.156 1.792.114 2.636-1.163 4.927-3.767 9.251-5.772 13.828-.921 1.251-1.244 2.844-2.348 3.923-.713-.21-1.161.573-1.85.613-3.15.158-5.332 2.507-7.728 4.256-.506-.292-1.147.407-1.287-.39-.323-1.079-.083-2.307 0-3.418-.697-.573-1.593.183-2.296-.224-.6-.645-1.552-1.342-1.178-2.405-.36-.167-.822.083-1.286 0-3.527-.156-7.516.16-10.808-1.084-5.083-1.203-9.787-3.23-14.058-6.255-2.055-1.677-3.68-4.156-5.15-6.322-.896-.058-1.875-.224-2.296-1.068-.167-1.022.14-2.574 1.067-3.162.729-.266 2.084-.333 2.823-.053.49.501.411 1.564.422 2.261 0 .746-.334 1.251-.954 1.683.58 1.104 1.574 2.125 2.355 3.192 2.438 2.813 5.755 4.213 8.79 5.933 1.303.744 2.97.547 4.205 1.458 2.896.109 5.203 1.792 8.172 1.568 1.932-.067 4.396.125 6.328.057.364.016.613.432 1.01.224.98-1.328 1.395-3.979 3.583-3.583.672.056.656 1.468 1.344.895.276-.348.307-.968.839-1.063 1.093-.228 1.875.615 2.968.558.507-.656.49-1.443.781-2.24-.947-5.78 2.214-10.347 2.688-15.68 0-.278-.066-.84.396-.898.235-.082.516-.052.73-.224-.156-.484-.1-1.062-.507-1.453-1.108 0-2.645 1.161-3.307-.39-.25-1.61.267-3.391-1.566-4.146-.251-.28 0-.63 0-.953 1.233-2.126 3.478-3.724 2.65-6.494-.182-1.36-.057-3.152.6-4.365.977-.896 2.547-.704 3.583-.173.739.297 1.316-1.198 1.905-1.322Z"/><path fill="#fff" fill-rule="evenodd" d="M77.803 4.391v.11c-.798-.266-4.934-1.374-5.507-2.062-1.55.614 2.98-.953 2.423-.912 1.484-.38 1.853 2.194 3.084 2.864" clip-rule="evenodd"/><path stroke="#fff" stroke-miterlimit="3.864" stroke-width=".16" d="M77.803 4.391v.11c-.798-.266-4.934-1.374-5.507-2.062-1.55.614 2.98-.953 2.423-.912 1.484-.38 1.853 2.194 3.084 2.864Z"/><path fill="#fff" d="M78.864 6.017c.63.349 1.527.374 1.627 1.286.239.995-.73 1.651-1.403 2.126-2.057-.907-3.848-2.507-6.156-2.798l-.224-.224c-1.64-.208-3.53-.28-5.208-.39-.099-.771-.084-1.626.224-2.296 1.75-.871 3.694.15 5.375.613 1.917.563 3.74 1.37 5.765 1.683"/><path stroke="#231f20" stroke-miterlimit="3.864" stroke-width=".933" d="M78.864 6.017c.63.349 1.527.374 1.627 1.286.239.995-.73 1.651-1.403 2.126-2.057-.907-3.848-2.507-6.156-2.798l-.224-.224c-1.64-.208-3.53-.28-5.208-.39-.099-.771-.084-1.626.224-2.296 1.75-.871 3.694.15 5.375.613 1.917.563 3.74 1.37 5.765 1.683Z"/><path fill="#231f20" d="M47.281 6.407c.984 2.432.536 6 .172 8.371.067-.24.531-.699.558-1.037h.224c.686-.64 1.317-1.427 2.072-1.902.84-.24.614.74.896 1.12 2.046 3.402 3.333 7.183 3.865 11.142.067 2.729.739 5.713.73 8.624-.183 2.729.15 5.109-.282 7.672-.97 1.12-2.901.349-4.199.896-.224.016-.405-.224-.505-.391.293-3.848-.49-7.027-.62-10.697-.92-4.86-1.552-8.574-4.337-12.662-.267-2.297.604-5.51.421-7.833-.323-.923.016-2.115-.73-2.853-2.505 2.03-1.3 5.706-1.453 8.452-.072.156-.353.224-.505.114-.713-.745-.24-1.75-.613-2.636-.704-3.202.894-6.046 3.077-8.286.912-.04.995 1.204 1.23 1.906"/><path stroke="#231f20" stroke-miterlimit="3.864" stroke-width=".933" d="M47.281 6.407c.984 2.432.536 6 .172 8.371.067-.24.531-.699.558-1.037h.224c.686-.64 1.317-1.427 2.072-1.902.84-.24.614.74.896 1.12 2.046 3.402 3.333 7.183 3.865 11.142.067 2.729.739 5.713.73 8.624-.183 2.729.15 5.109-.282 7.672-.97 1.12-2.901.349-4.199.896-.224.016-.405-.224-.505-.391.293-3.848-.49-7.027-.62-10.697-.92-4.86-1.552-8.574-4.337-12.662-.267-2.297.604-5.51.421-7.833-.323-.923.016-2.115-.73-2.853-2.505 2.03-1.3 5.706-1.453 8.452-.072.156-.353.224-.505.114-.713-.745-.24-1.75-.613-2.636-.704-3.202.894-6.046 3.077-8.286.912-.04.995 1.204 1.23 1.906Z"/><path fill="#fff" d="M77.297 10.158c-.016.563-.25 1.02-.557 1.457-1.193 1.552-2.59 2.896-3.307 4.647-.126.979-.236 2.156-.11 3.027-.995.446-2.156.473-3.192.837-.35-.265-.448-.963-.672-1.459.838-.796 2.014-1.676 2.014-2.91-.166-.151-.749-.407-.989-.224-1.135 1.568-1.896 2.593-3.787 2.688l-.656-.276c-.349-1.194.574-2.678-.78-3.475-.225-.183-.105-.307-.302-.563.91-1.792 2.9-2.994 2.801-5.202 3.235-.438 6.765-.38 9.537 1.453"/><path stroke="#231f20" stroke-miterlimit="3.864" stroke-width=".933" d="M77.297 10.158c-.016.563-.25 1.02-.557 1.457-1.193 1.552-2.59 2.896-3.307 4.647-.126.979-.236 2.156-.11 3.027-.995.446-2.156.473-3.192.837-.35-.265-.448-.963-.672-1.459.838-.796 2.014-1.676 2.014-2.91-.166-.151-.749-.407-.989-.224-1.135 1.568-1.896 2.593-3.787 2.688l-.656-.276c-.349-1.194.574-2.678-.78-3.475-.225-.183-.105-.307-.302-.563.91-1.792 2.9-2.994 2.801-5.202 3.235-.438 6.765-.38 9.537 1.453Z"/><path fill="#231f20" d="M41.072 13.74c-.53.533-.327.142-1.067.34-2.13.573-4.229 1.27-6.494 1.51-1.319.448-2.787.995-3.532 2.353-3.834 3.188-9.057 2.954-13.437 5.038-1.917 1.833-2.745 4.312-4.313 6.385-.25.547.506.407.73.672 1.047.208 2.015.083 3.077 0 .912-.38 1.75-1.104 2.803-.953.093.197.292.48.052.672-1.552.91-3.245 1.64-5.208 1.4-1.021-.015-2.043-.28-2.63-1.12l.056-.562c1.136-2.125 1.947-4.516 3.194-6.588 1.848-2.224 5.442-2.245 7.837-3.376 3.11-1.077 6.61-1.468 8.568-4.48 1.636-1.066 3.724-1.29 5.714-1.624.177-1.093.177-2.406 1.286-3.192 1.006-.729 2.407-.604 3.418-1.234.416.082.088 3.026-.054 4.76"/><path stroke="#231f20" stroke-miterlimit="3.864" stroke-width=".933" d="M41.072 13.74c-.53.533-.327.142-1.067.34-2.13.573-4.229 1.27-6.494 1.51-1.319.448-2.787.995-3.532 2.353-3.834 3.188-9.057 2.954-13.437 5.038-1.917 1.833-2.745 4.312-4.313 6.385-.25.547.506.407.73.672 1.047.208 2.015.083 3.077 0 .912-.38 1.75-1.104 2.803-.953.093.197.292.48.052.672-1.552.91-3.245 1.64-5.208 1.4-1.021-.015-2.043-.28-2.63-1.12l.056-.562c1.136-2.125 1.947-4.516 3.194-6.588 1.848-2.224 5.442-2.245 7.837-3.376 3.11-1.077 6.61-1.468 8.568-4.48 1.636-1.066 3.724-1.29 5.714-1.624.177-1.093.177-2.406 1.286-3.192 1.006-.729 2.407-.604 3.418-1.234.416.082.088 3.026-.054 4.76Z"/><path fill="#231f20" d="M37.036 18.22a.653.653 0 0 1-.448.787c-.672.056-1.16-.546-1.733-.562.04.826-.032 1.754-.563 2.41-.475.366-1.01.418-1.568.224-.77-.437-.057-2.156-1.23-1.74-.437-.796.46-1.328.782-1.957 1.51-1.387 3.5-.11 4.76.839"/><path stroke="#231f20" stroke-miterlimit="3.864" stroke-width=".16" d="M37.036 18.22a.653.653 0 0 1-.448.787c-.672.056-1.16-.546-1.733-.562.04.826-.032 1.754-.563 2.41-.475.366-1.01.418-1.568.224-.77-.437-.057-2.156-1.23-1.74-.437-.796.46-1.328.782-1.957 1.51-1.387 3.5-.11 4.76.839Z"/><path fill="#231f20" d="M19.312 24.465c-.255.682-1.135.813-1.624 1.4.052.99-.213 1.986-.896 2.741-.396.28-.928.547-1.401.28-.63-.253-.688-.937-.39-1.453 1.004-1.26 2.322-2.942 3.972-3.25.142.042.294.126.34.282"/><path stroke="#231f20" stroke-miterlimit="3.864" stroke-width=".933" d="M19.312 24.465c-.255.682-1.135.813-1.624 1.4.052.99-.213 1.986-.896 2.741-.396.28-.928.547-1.401.28-.63-.253-.688-.937-.39-1.453 1.004-1.26 2.322-2.942 3.972-3.25.142.042.294.126.34.282Z"/><path fill="#fff" d="M24.547 28.47c.057.39-.267.755-.614.839a1.87 1.87 0 0 1-1.345 0c-.505-.251-.181-.771-.11-1.12.35-.823.98-.067 1.563-.334z"/><path stroke="#fff" stroke-miterlimit="3.864" stroke-width=".933" d="M24.547 28.47c.057.39-.267.755-.614.839a1.87 1.87 0 0 1-1.345 0c-.505-.251-.181-.771-.11-1.12.35-.823.98-.067 1.563-.334z"/><path fill="#231f20" d="M42.859 28.189c0 .645-.63 1.541-.952 2.016-1.579 1.333-3.568 1.4-5.543 1.906-1.947.907-4.453 1.354-6.16 0-1.23-.365-2.605-.48-3.867-.786a.586.586 0 0 1 0-.724c2.032-.115 4.428-.438 5.996.896 2.98.432 5.64-.928 8.23-1.964.87-.5 1.062-1.85 2.073-1.734z"/><path stroke="#231f20" stroke-miterlimit="3.864" stroke-width=".933" d="M42.859 28.189c0 .645-.63 1.541-.952 2.016-1.579 1.333-3.568 1.4-5.543 1.906-1.947.907-4.453 1.354-6.16 0-1.23-.365-2.605-.48-3.867-.786a.586.586 0 0 1 0-.724c2.032-.115 4.428-.438 5.996.896 2.98.432 5.64-.928 8.23-1.964.87-.5 1.062-1.85 2.073-1.734z"/><path fill="#231f20" d="M23.203 32.22c-.067 1.334-1.635 2.28-2.63 2.687-1.776.714-4.38 1.11-6.048-.109-.504-.656-1.598-1.525-1.514-2.52.197-.141.213-.381.505-.281 1.301 1.514 3.124 2.52 5.15 1.906 1.417-.49 2.927-.84 4.031-1.96.24-.072.422.094.506.278"/><path stroke="#231f20" stroke-miterlimit="3.864" stroke-width=".933" d="M23.203 32.22c-.067 1.334-1.635 2.28-2.63 2.687-1.776.714-4.38 1.11-6.048-.109-.504-.656-1.598-1.525-1.514-2.52.197-.141.213-.381.505-.281 1.301 1.514 3.124 2.52 5.15 1.906 1.417-.49 2.927-.84 4.031-1.96.24-.072.422.094.506.278Z"/><path fill="#231f20" d="M32.165 39.834c.18.396.152.772-.113 1.12-.755 3.573-1.807 7.016-2.97 10.417-.894 2.827-2.629 5.307-3.415 8.178.224 2.265 1.473 4.114 2.073 6.213l-.281.901c.437.474.896.027 1.4.167 1.22-.365 2.406-.885 3.417-1.627.473-.321 1.093-.629 1.677-.337l.172.28c-.66 1.08-.209 2.761-1.516 3.417-2.15.912-4.406-.098-6.66.224-2.465 0-4.845.11-7.334-.166-1.875-.406-3.334.781-4.65 1.677-.908.87-2.522.52-3.022 1.907-.828 2.896-1.194 5.978-2.636 8.625a22.7 22.7 0 0 0-2.015 6.661c-.21 1.932.24 3.864 1.12 5.49 1.203.416 2.479-.35 3.473-1.12.016-.438-.464-.52-.562-.896.032-.646-.964-1.011-.558-1.683.292-.29.782-.11 1.006-.557.046-.504-.474-.802-.614-1.234-1.469-2.87.264-6.078.895-8.901.745-.901.437-2.817 2.073-2.745.38.349.87.464 1.344.557a4.57 4.57 0 0 0 2.24-1.677c1.134-.348 2.098.376 3.192.448 2.323.349 4.802-.124 7.058.224 2.224.276 4.77.1 6.885.781 1.583.672 2.577.39 3.75-.448.437-.979.266-2.77 1.625-3.02.797.656-.14 1.48 0 2.348-.042.49.14 1.093-.224 1.459-1.4 1.021-3.4 2.032-5.208 1.286-.459.016-.77-.338-1.178-.448-2.364-.39-4.912.142-7.109-.672-2.853-.041-5.375-.265-8.063-.896-1.192.756-2.322 2.298-3.978 1.678-.334-.375-.74-.11-.89.281-.804 2.323-1.585 4.636-2.132 7.057.142.208-.208.814.224 1.063.251 1.203 1.751 2.03 1.344 3.36-.166.49-1.4.63-.614 1.29.192.517.864.251.896.84.057.28.181.603.057.895-1.557 1.246-3.323 2.24-5.49 2.131l-.338-.339c-.964-2.546-1.693-5.489-.896-8.286.755-1.964.713-4.246 2.13-5.938.422-1.204.823-2.406 1.286-3.584.49-2.48.339-5.906 3.417-6.609-.78-.416-1.849-.416-2.802-.557-1.386 1.933-1.526 4.396-2.91 6.328-.616 1.302.212 2.688.171 4.089-.97 1.833-2.62 3.4-2.97 5.484-.197.224-.546.297-.786.115-1.89-1.067-2.73-3.151-2.688-5.099.39-2.573 1.204-5.152 1.683-7.5.125-.13-.015-.48.11-.672.603-1.964.531-4.48 1.74-6.328.655-1.344 2.796-2.187 3.748-3.417 2.158-1.036 4.606-.027 6.72-1.011 1.692-.067 3.318-.29 4.984-.448 1.26-.15 2.422.016 3.583-.39-.208-1.777.912-3.151 1.568-4.646 3.26-4.552 5.53-9.52 6.27-15.12-.015-.505-.051-1.077.391-1.344.538-.197.72.433.9.724"/><path stroke="#231f20" stroke-miterlimit="3.864" stroke-width=".933" d="M32.165 39.834c.18.396.152.772-.113 1.12-.755 3.573-1.807 7.016-2.97 10.417-.894 2.827-2.629 5.307-3.415 8.178.224 2.265 1.473 4.114 2.073 6.213l-.281.901c.437.474.896.027 1.4.167 1.22-.365 2.406-.885 3.417-1.627.473-.321 1.093-.629 1.677-.337l.172.28c-.66 1.08-.209 2.761-1.516 3.417-2.15.912-4.406-.098-6.66.224-2.465 0-4.845.11-7.334-.166-1.875-.406-3.334.781-4.65 1.677-.908.87-2.522.52-3.022 1.907-.828 2.896-1.194 5.978-2.636 8.625a22.7 22.7 0 0 0-2.015 6.661c-.21 1.932.24 3.864 1.12 5.49 1.203.416 2.479-.35 3.473-1.12.016-.438-.464-.52-.562-.896.032-.646-.964-1.011-.558-1.683.292-.29.782-.11 1.006-.557.046-.504-.474-.802-.614-1.234-1.469-2.87.264-6.078.895-8.901.745-.901.437-2.817 2.073-2.745.38.349.87.464 1.344.557a4.57 4.57 0 0 0 2.24-1.677c1.134-.348 2.098.376 3.192.448 2.323.349 4.802-.124 7.058.224 2.224.276 4.77.1 6.885.781 1.583.672 2.577.39 3.75-.448.437-.979.266-2.77 1.625-3.02.797.656-.14 1.48 0 2.348-.042.49.14 1.093-.224 1.459-1.4 1.021-3.4 2.032-5.208 1.286-.459.016-.77-.338-1.178-.448-2.364-.39-4.912.142-7.109-.672-2.853-.041-5.375-.265-8.063-.896-1.192.756-2.322 2.298-3.978 1.678-.334-.375-.74-.11-.89.281-.804 2.323-1.585 4.636-2.132 7.057.142.208-.208.814.224 1.063.251 1.203 1.751 2.03 1.344 3.36-.166.49-1.4.63-.614 1.29.192.517.864.251.896.84.057.28.181.603.057.895-1.557 1.246-3.323 2.24-5.49 2.131l-.338-.339c-.964-2.546-1.693-5.489-.896-8.286.755-1.964.713-4.246 2.13-5.938.422-1.204.823-2.406 1.286-3.584.49-2.48.339-5.906 3.417-6.609-.78-.416-1.849-.416-2.802-.557-1.386 1.933-1.526 4.396-2.91 6.328-.616 1.302.212 2.688.171 4.089-.97 1.833-2.62 3.4-2.97 5.484-.197.224-.546.297-.786.115-1.89-1.067-2.73-3.151-2.688-5.099.39-2.573 1.204-5.152 1.683-7.5.125-.13-.015-.48.11-.672.603-1.964.531-4.48 1.74-6.328.655-1.344 2.796-2.187 3.748-3.417 2.158-1.036 4.606-.027 6.72-1.011 1.692-.067 3.318-.29 4.984-.448 1.26-.15 2.422.016 3.583-.39-.208-1.777.912-3.151 1.568-4.646 3.26-4.552 5.53-9.52 6.27-15.12-.015-.505-.051-1.077.391-1.344.538-.197.72.433.9.724Z"/><path fill="#fff" d="m59.208 40.845.507 1.12c-.518 1.036-.548 2.266-1.064 3.302-.646.14-1.4.198-2.015.224-.464-.349-.647-.948-.39-1.453.765-1.292.92-2.87 2.124-3.923.589-.28.686.439.838.73"/><path stroke="#231f20" stroke-miterlimit="3.864" stroke-width=".933" d="m59.208 40.845.507 1.12c-.518 1.036-.548 2.266-1.064 3.302-.646.14-1.4.198-2.015.224-.464-.349-.647-.948-.39-1.453.765-1.292.92-2.87 2.124-3.923.589-.28.686.439.838.73Z"/><path fill="#fff" d="M100.312 51.855c4.552 2.214 8.147 5.76 13.661 4.948 2.735-1.136 5.267-1.946 8.516-1.64.714 0 1.495-.6 1.734.072 1.428 1.511 2.829 3.276 3.193 5.432.293 1.022.715 2.158.781 3.08-.416.42-.937-.333-1.509 0-1.387 1.026.224 2.296.113 3.531.308 1.353.543 2.827.278 4.14-.6.38-.824-.459-1.396-.615-.382-.114-.746-.421-1.178-.224-.828.698.11 1.5.167 2.24 1.177 2.547 1.776 5.672 1.4 8.511-1.093 1.656-1.567 3.697-3.359 5.04-1.6.98-2.953 2.355-3.64 4.147-.1 1.146-.546 2.422-.057 3.526-.251.375-.699.015-1.005-.114-4.246-2.964-.943-8.787-.246-12.823 1.246-3.5 1.683-7.167 2.594-10.808.213-4.703-.49-9.53-4.984-11.813-.74-.04-1.526-1.218-2.24-.671-1.228 1.104-1.052 3.468-.859 4.87 1.177 4.453.552 9.895-2.104 13.66-.704.131-.803.995-1.459 1.235-2.489 2.042-3.797 4.818-4.645 7.787-1.251 5.12 1.661 9.307 5.484 11.813.713.728 1.724 1.01 2.297 1.848l.13 1.251c-.73.853-1.531.307-2.427.895-1.792.953-3.527 3.005-5.317 3.96-3.376 2.52-5.98 5.301-6.552 9.238-.563 1.036-1.5-.114-2.355.334-1.187.125-2.306.926-2.912 2.016-1.328-.054-2.613-.5-3.75-1.199-.306-.307-.868.245-1.066-.088 2.338-1.876 4.354-3.683 6.723-5.6 1.536-1.427 3.323-2.676 5.079-3.713 1.087-1.26 2.77-2.099 3.186-3.791.437-1.147.313-3.193-.599-4.199-1.41-1.849-3.577-2.088-5.369-3.134-3-.844-6.079-2.912-7.672-5.715-2.38-3.724-3.234-8.219-6.5-11.421a8.9 8.9 0 0 0-4.09-1.74c-1.227.186-2.853-.963-3.467.562.082.73-.87 1.626.11 2.131 2.254.093 4.816.224 6.218 2.067.953.225 1.187 1.261 1.792 1.849 3.16 4.803 4.844 12.276 11.588 13.387.546.853.926 1.874 1.573 2.744-.412.724-1.474.489-2.186 1.062-1.751.631-3.237 1.902-5.038 2.407-1.125 1.16-2.645 1.875-3.865 2.801-.744-.114-.968.814-1.515 1.063-1.819 1.459-2.406 3.067-2.797 5.208-.77.417-1.75.896-2.63 1.063-.24.604-.928.729-1.291 1.12-1.402-.276-2.828-.823-3.64-2.183.405-.953 1.525-.896 2.238-1.568 1.443-1.061 3.334-1.385 4.65-2.744 1.892-1.26 3.766-3.317 4.76-5.432 1.397-3.12 1.189-8.005-1.233-10.584-3.218-4.047-7.78-6.147-11.365-9.796-.536-.76-1.5-.48-1.907-1.293 1.07-.062 2.143.014 3.194.225.281.396.797.172 1.177.339.896.224 1.568 1.676 2.464 1.733.323.1.921-.015 1.285-.505-.306-1.536-2.129-1.312-3.077-2.24-2.281-.755-4.874-1.467-7.39-1.119-.97.645-2.2.672-3.194 1.235-2.146-.298-4.37.557-6.493.224-.24.057-.439.514-.564.057a50 50 0 0 0 1.677-4.037c4.527-.224 8.865-1.552 13.104-2.796 2.688-1.262 5.25-2.986 7.563-5.043 4.057-4.77 4.926-10.957 7.896-16.24.322.621 1.302.256 1.85.116.847-.828 2.223.124 3.134-.563 1.063-.292 2.333-.068 3.302-.614 1.46.14 2.672.74 4.031 1.098"/><path stroke="#231f20" stroke-miterlimit="3.864" stroke-width=".933" d="M100.312 51.855c4.552 2.214 8.147 5.76 13.661 4.948 2.735-1.136 5.267-1.946 8.516-1.64.714 0 1.495-.6 1.734.072 1.428 1.511 2.829 3.276 3.193 5.432.293 1.022.715 2.158.781 3.08-.416.42-.937-.333-1.509 0-1.387 1.026.224 2.296.113 3.531.308 1.353.543 2.827.278 4.14-.6.38-.824-.459-1.396-.615-.382-.114-.746-.421-1.178-.224-.828.698.11 1.5.167 2.24 1.177 2.547 1.776 5.672 1.4 8.511-1.093 1.656-1.567 3.697-3.359 5.04-1.6.98-2.953 2.355-3.64 4.147-.1 1.146-.546 2.422-.057 3.526-.251.375-.699.015-1.005-.114-4.246-2.964-.943-8.787-.246-12.823 1.246-3.5 1.683-7.167 2.594-10.808.213-4.703-.49-9.53-4.984-11.813-.74-.04-1.526-1.218-2.24-.671-1.228 1.104-1.052 3.468-.859 4.87 1.177 4.453.552 9.895-2.104 13.66-.704.131-.803.995-1.459 1.235-2.489 2.042-3.797 4.818-4.645 7.787-1.251 5.12 1.661 9.307 5.484 11.813.713.728 1.724 1.01 2.297 1.848l.13 1.251c-.73.853-1.531.307-2.427.895-1.792.953-3.527 3.005-5.317 3.96-3.376 2.52-5.98 5.301-6.552 9.238-.563 1.036-1.5-.114-2.355.334-1.187.125-2.306.926-2.912 2.016-1.328-.054-2.613-.5-3.75-1.199-.306-.307-.868.245-1.066-.088 2.338-1.876 4.354-3.683 6.723-5.6 1.536-1.427 3.323-2.676 5.079-3.713 1.087-1.26 2.77-2.099 3.186-3.791.437-1.147.313-3.193-.599-4.199-1.41-1.849-3.577-2.088-5.369-3.134-3-.844-6.079-2.912-7.672-5.715-2.38-3.724-3.234-8.219-6.5-11.421a8.9 8.9 0 0 0-4.09-1.74c-1.227.186-2.853-.963-3.467.562.082.73-.87 1.626.11 2.131 2.254.093 4.816.224 6.218 2.067.953.225 1.187 1.261 1.792 1.849 3.16 4.803 4.844 12.276 11.588 13.387.546.853.926 1.874 1.573 2.744-.412.724-1.474.489-2.186 1.062-1.751.631-3.237 1.902-5.038 2.407-1.125 1.16-2.645 1.875-3.865 2.801-.744-.114-.968.814-1.515 1.063-1.819 1.459-2.406 3.067-2.797 5.208-.77.417-1.75.896-2.63 1.063-.24.604-.928.729-1.291 1.12-1.402-.276-2.828-.823-3.64-2.183.405-.953 1.525-.896 2.238-1.568 1.443-1.061 3.334-1.385 4.65-2.744 1.892-1.26 3.766-3.317 4.76-5.432 1.397-3.12 1.189-8.005-1.233-10.584-3.218-4.047-7.78-6.147-11.365-9.796-.536-.76-1.5-.48-1.907-1.293 1.07-.062 2.143.014 3.194.225.281.396.797.172 1.177.339.896.224 1.568 1.676 2.464 1.733.323.1.921-.015 1.285-.505-.306-1.536-2.129-1.312-3.077-2.24-2.281-.755-4.874-1.467-7.39-1.119-.97.645-2.2.672-3.194 1.235-2.146-.298-4.37.557-6.493.224-.24.057-.439.514-.564.057a50 50 0 0 0 1.677-4.037c4.527-.224 8.865-1.552 13.104-2.796 2.688-1.262 5.25-2.986 7.563-5.043 4.057-4.77 4.926-10.957 7.896-16.24.322.621 1.302.256 1.85.116.847-.828 2.223.124 3.134-.563 1.063-.292 2.333-.068 3.302-.614 1.46.14 2.672.74 4.031 1.098Z"/><path fill="#fff" d="M85.416 51.205c-.853 4.493-3.203 8.749-4.703 13.046-.557.798-3.687 4.386-4.36 5.14 0 0-6 3.106-11.317 4.158-1.666.514-3.514 1.16-5.322 1.342-.35-.796.546-1.749-.558-2.181l-.73-.115c-.24-.77.517-1.27.508-2.016.962-1.552 2.697-2.421 4.253-3.136 1.136-1.145 2.62-1.706 3.641-2.91.407 0 .573.489.73.781.989 1.177 2.291 2.088 3.582 2.801 1.09-.29 1.51-1.541 2.016-2.405 1.667-2.412 2.979-5.043 4.48-7.563.952-2 2.198-3.874 2.854-5.989.182-.437-.323-.604-.224-1.01 1.186.015 2.422.462 3.584.057l.338.114c.233-.338.823-.506 1.228-.506z"/><path stroke="#231f20" stroke-miterlimit="3.864" stroke-width=".933" d="M85.416 51.205c-.853 4.493-3.203 8.749-4.703 13.046-.557.798-3.687 4.386-4.36 5.14 0 0-6 3.106-11.317 4.158-1.666.514-3.514 1.16-5.322 1.342-.35-.796.546-1.749-.558-2.181l-.73-.115c-.24-.77.517-1.27.508-2.016.962-1.552 2.697-2.421 4.253-3.136 1.136-1.145 2.62-1.706 3.641-2.91.407 0 .573.489.73.781.989 1.177 2.291 2.088 3.582 2.801 1.09-.29 1.51-1.541 2.016-2.405 1.667-2.412 2.979-5.043 4.48-7.563.952-2 2.198-3.874 2.854-5.989.182-.437-.323-.604-.224-1.01 1.186.015 2.422.462 3.584.057l.338.114c.233-.338.823-.506 1.228-.506z"/><path fill="#fff" d="M62.964 51.427c.15 2.871.49 5.111 1.228 7.731.48.963.756 2 1.235 2.968.448.407.193.937.057 1.51-1.427 1.72-3.067 2.746-5.208 3.585-1.219.894-3.11 2.801-3.307 4.369l-.39 1.51c-1.808.1-2.464.797-4.199.058l-.787-.281c.156-4.204-.713-8.6 2.464-11.819 2.52-3.343 5.755-6.745 8.907-9.63"/><path stroke="#231f20" stroke-miterlimit="3.864" stroke-width=".933" d="M62.964 51.427c.15 2.871.49 5.111 1.228 7.731.48.963.756 2 1.235 2.968.448.407.193.937.057 1.51-1.427 1.72-3.067 2.746-5.208 3.585-1.219.894-3.11 2.801-3.307 4.369l-.39 1.51c-1.808.1-2.464.797-4.199.058l-.787-.281c.156-4.204-.713-8.6 2.464-11.819 2.52-3.343 5.755-6.745 8.907-9.63Z"/><path fill="#fff" d="M23.26 61.507c.573 1.682.912 3.474 1.235 5.266l.442.338c-1.27.92-3.636.078-5.202.499-1.486-.135-2.986-.276-4.37.339l-1.51 1.005c-.464.057-.439-.713-.954-.73-1.568.1-3.89-1.327-4.704.787-.796 1.64-1.077 3.5-2.129 5.043-.813 1.51-.823 3.203-.224 4.812-.683 1.468-1.76 2.943-2.688 4.312-.74-.027-.755-.839-.953-1.344l-.167-1.9c.59-2.552 1.276-5.156 1.625-7.73.282-.365.391-.853.34-1.291.556-1.203.191-2.823 1.171-3.803.267-1.864 2.364-2.203 3.473-3.473 1.71-.771 3.683.15 5.32-.787 1.915-.01 3.92-.375 5.77-.557 1.177-.099 2.28-.686 3.525-.786"/><path stroke="#231f20" stroke-miterlimit="3.864" stroke-width=".933" d="M23.26 61.507c.573 1.682.912 3.474 1.235 5.266l.442.338c-1.27.92-3.636.078-5.202.499-1.486-.135-2.986-.276-4.37.339l-1.51 1.005c-.464.057-.439-.713-.954-.73-1.568.1-3.89-1.327-4.704.787-.796 1.64-1.077 3.5-2.129 5.043-.813 1.51-.823 3.203-.224 4.812-.683 1.468-1.76 2.943-2.688 4.312-.74-.027-.755-.839-.953-1.344l-.167-1.9c.59-2.552 1.276-5.156 1.625-7.73.282-.365.391-.853.34-1.291.556-1.203.191-2.823 1.171-3.803.267-1.864 2.364-2.203 3.473-3.473 1.71-.771 3.683.15 5.32-.787 1.915-.01 3.92-.375 5.77-.557 1.177-.099 2.28-.686 3.525-.786Z"/><path fill="#fff" d="M55.068 74.445c1.187.208 1.9-.1 3.027-.391-.142 3.233-2.174 5.667-3.418 8.51-1.516 2.813-2.62 5.657-3.084 8.96-.754.306-1.817.363-2.573.165-.405-.334-.661-1.454-1.233-1.23-1.36 1.72-3.584 1.746-5.432 1.954-1.23-.364-2.97-.807-4.199-.328-.25-.156-.099.093-.28-.224.155-.662-.293-1.235.447-1.459 1.202-.24 2.297-.88 3.474-.896.266-.796 1.104.448 1.567.167 1.272-.099 3.387-.854 4.256-2.124.823-1.246.979-2.746 1.568-4.09.613-3.234.29-6.493 1.4-9.52 1.537.506 2.828.927 4.48.506"/><path stroke="#231f20" stroke-miterlimit="3.864" stroke-width=".233" d="M55.068 74.445c1.187.208 1.9-.1 3.027-.391-.142 3.233-2.174 5.667-3.418 8.51-1.516 2.813-2.62 5.657-3.084 8.96-.754.306-1.817.363-2.573.165-.405-.334-.661-1.454-1.233-1.23-1.36 1.72-3.584 1.746-5.432 1.954-1.23-.364-2.97-.807-4.199-.328-.25-.156-.099.093-.28-.224.155-.662-.293-1.235.447-1.459 1.202-.24 2.297-.88 3.474-.896.266-.796 1.104.448 1.567.167 1.272-.099 3.387-.854 4.256-2.124.823-1.246.979-2.746 1.568-4.09.613-3.234.29-6.493 1.4-9.52 1.537.506 2.828.927 4.48.506Z"/><path fill="#231f20" d="M14.583 93.09c.64.87 2.657 1.11 1.96 2.577-.912 2.448-1.584 5.11-3.756 6.943l-2.292 1.627-.448-.059c-1.302-2.323-3.183-4.463-3.135-7.28l.11-.333c2.28-1.152 4.353-2.944 6.328-4.371.588-.027.713.745 1.233.896"/><path stroke="#231f20" stroke-miterlimit="3.864" stroke-width=".16" d="M14.583 93.09c.64.87 2.657 1.11 1.96 2.577-.912 2.448-1.584 5.11-3.756 6.943l-2.292 1.627-.448-.059c-1.302-2.323-3.183-4.463-3.135-7.28l.11-.333c2.28-1.152 4.353-2.944 6.328-4.371.588-.027.713.745 1.233.896Z"/><path fill="#231f20" d="M70.745 112.355c1.203 1.918 3.276 2.927 5.374 3.246.746.505-.223.968-.223 1.514-.781 1.918-1.51 4.746-4.141 4.871-1.542.265-2.827-.38-4.088-.953-1.318-.058-3.12-.699-4.147.338-.541.083-.796-.396-1.12-.62l.059-.39c1.916-3.328 5.082-5.807 8.062-8.006z"/><path stroke="#231f20" stroke-miterlimit="3.864" stroke-width=".16" d="M70.745 112.355c1.203 1.918 3.276 2.927 5.374 3.246.746.505-.223.968-.223 1.514-.781 1.918-1.51 4.746-4.141 4.871-1.542.265-2.827-.38-4.088-.953-1.318-.058-3.12-.699-4.147.338-.541.083-.796-.396-1.12-.62l.059-.39c1.916-3.328 5.082-5.807 8.062-8.006z"/><path fill="#231f20" d="M88.552 118.961c.745.812 2.213.213 2.745 1.176-.28 1.906-1.973 3.208-2.969 4.817-.64 1.187-1.833.964-2.912 1.063-1.244-.28-2.604-.307-3.75-.839-1.5.057-2.687-.14-4.087.167-.407-.099-.97-.208-1.12-.558.38-1.697 1.724-2.842 2.63-4.312 1.526-1.386 3-3.15 4.818-3.921 1.624.629 2.786 2.365 4.645 2.407"/><path stroke="#231f20" stroke-miterlimit="3.864" stroke-width=".16" d="M88.552 118.961c.745.812 2.213.213 2.745 1.176-.28 1.906-1.973 3.208-2.969 4.817-.64 1.187-1.833.964-2.912 1.063-1.244-.28-2.604-.307-3.75-.839-1.5.057-2.687-.14-4.087.167-.407-.099-.97-.208-1.12-.558.38-1.697 1.724-2.842 2.63-4.312 1.526-1.386 3-3.15 4.818-3.921 1.624.629 2.786 2.365 4.645 2.407Z"/></svg>
